<?xml version="1.0" encoding="UTF-8"?>
<svg xmlns="http://www.w3.org/2000/svg" xmlns:xlink="http://www.w3.org/1999/xlink" version="1.2" >
<font id="Aalto Sans Pro Regular It">
<font-face  font-family="Aalto Sans Pro" units-per-em="1200" ascent="1060" descent="-450" font-style="normal" font-weight="400" font-stretch="normal" slope="-9" cap-height="700" x-height="525" underline-position="-75" underline-thickness="50" />
<missing-glyph  horiz-adv-x="646" d="M124 730 L124 0 L554 0 L554 730 L124 730 Z M189 695 L489 695 L339 408 L189 695 Z M317 365 L164 73 L164 657 L317 365 Z M362 365 L514 657 L514 73 L362 365 Z M339 322 L489 35 L189 35 L339 322 Z " />
<glyph glyph-name="NULL" d="" />
<glyph glyph-name="CR" unicode="&#xd;" horiz-adv-x="300" d="" />
<glyph glyph-name="space" unicode="&#x20;" horiz-adv-x="236" d="" />
<glyph glyph-name="exclam" unicode="&#x21;" horiz-adv-x="265" d="M81 175 L159 175 L250 700 L155 700 L81 175 Z M96 -12 C139 -12 169 11 169 56 C169 92 142 111 106 111 C63 111 33 88 33 43 C33 7 60 -12 96 -12 L96 -12 Z " />
<glyph glyph-name="quotedbl" unicode="&#x22;" horiz-adv-x="367" d="M110 521 L184 521 L241 773 L131 773 L110 521 Z M268 521 L341 521 L398 773 L288 773 L268 521 Z " />
<glyph glyph-name="numbersign" unicode="&#x23;" horiz-adv-x="672" d="M637 340 L670 406 L543 406 L610 546 L530 546 L463 406 L335 406 L402 546 L328 546 L261 406 L141 406 L109 340 L229 340 L163 203 L40 203 L7 137 L132 137 L66 0 L140 0 L206 137 L333 137 L267 0 L348 0 L414 137 L535 137 L569 203 L445 203 L511 340 L637 340 Z M365 203 L237 203 L303 340 L431 340 L365 203 Z " />
<glyph glyph-name="dollar" unicode="&#x24;" horiz-adv-x="552" d="M352 606 C415 606 469 594 521 569 L535 656 C498 676 451 686 396 689 L410 781 L316 781 L301 686 C170 668 98 597 98 497 C98 397 154 354 266 320 C366 289 402 265 402 204 C402 132 345 94 238 94 C152 94 90 114 41 154 L26 55 C67 30 125 15 194 11 L177 -94 L272 -94 L289 13 C420 27 500 92 500 226 C500 325 443 371 316 409 C224 437 194 458 194 507 C194 570 249 606 352 606 L352 606 Z " />
<glyph glyph-name="percent" unicode="&#x25;" horiz-adv-x="884" d="M119 -14 L213 -14 L796 708 L703 708 L119 -14 Z M237 328 C356 328 430 410 430 532 C430 630 365 696 262 696 C142 696 67 615 67 493 C67 395 133 328 237 328 L237 328 Z M239 396 C180 396 149 440 149 500 C149 575 192 627 258 627 C315 627 349 585 349 524 C349 448 307 396 239 396 L239 396 Z M649 -11 C768 -11 843 70 843 192 C843 290 781 357 674 357 C555 357 480 276 480 154 C480 56 542 -11 649 -11 L649 -11 Z M652 57 C593 57 562 101 562 161 C562 236 605 288 671 288 C730 288 761 244 761 184 C761 109 718 57 652 57 L652 57 Z " />
<glyph glyph-name="ampersand" unicode="&#x26;" horiz-adv-x="701" d="M529 108 C569 164 597 240 613 337 L621 387 L539 387 L532 342 C521 274 505 217 480 173 L327 377 C287 431 270 464 270 510 C270 603 337 640 427 640 C479 640 526 632 572 608 L585 688 C549 706 492 718 433 718 C281 718 179 634 179 500 C179 455 192 420 211 387 C100 346 41 265 41 164 C41 51 123 -20 257 -20 C342 -20 412 0 469 44 C516 -7 569 -25 656 -25 L666 53 C598 53 563 70 529 108 L529 108 Z M137 178 C137 250 180 302 251 329 L421 104 C384 77 336 62 276 62 C188 62 137 102 137 178 L137 178 Z " />
<glyph glyph-name="quotesingle" unicode="&#x27;" horiz-adv-x="210" d="M110 521 L184 521 L241 773 L131 773 L110 521 Z " />
<glyph glyph-name="parenleft" unicode="&#x28;" horiz-adv-x="339" d="M221 -129 L274 -62 C196 2 139 114 139 248 C139 434 219 594 392 699 L347 767 C145 656 46 460 46 241 C46 83 118 -54 221 -129 L221 -129 Z " />
<glyph glyph-name="parenright" unicode="&#x29;" horiz-adv-x="339" d="M137 758 L84 691 C162 627 219 515 219 381 C219 195 139 35 -34 -70 L11 -138 C213 -27 312 169 312 388 C312 546 240 683 137 758 L137 758 Z " />
<glyph glyph-name="asterisk" unicode="&#x2a;" horiz-adv-x="421" d="M445 615 L416 692 L297 633 L329 783 L245 783 L237 635 L127 704 L83 625 L212 577 L106 463 L167 412 L256 538 L303 412 L381 450 L309 575 L445 615 Z " />
<glyph glyph-name="plus" unicode="&#x2b;" horiz-adv-x="465" d="M436 326 L281 326 L307 486 L231 486 L205 326 L51 326 L39 252 L194 252 L168 91 L244 91 L270 252 L424 252 L436 326 Z " />
<glyph glyph-name="comma" unicode="&#x2c;" horiz-adv-x="241" d="M-18 -152 L57 -152 C123 -89 156 -18 156 44 C156 96 128 118 92 118 C47 118 17 87 17 43 C17 10 38 -15 68 -15 L73 -15 C68 -47 40 -98 -18 -152 L-18 -152 Z " />
<glyph glyph-name="hyphen" unicode="&#x2d;" horiz-adv-x="434" d="M76 321 L63 240 L365 240 L378 321 L76 321 Z " />
<glyph glyph-name="period" unicode="&#x2e;" horiz-adv-x="230" d="M77 -12 C120 -12 150 11 150 56 C150 92 123 111 87 111 C44 111 14 88 14 43 C14 7 41 -12 77 -12 L77 -12 Z " />
<glyph glyph-name="slash" unicode="&#x2f;" horiz-adv-x="544" d="M-37 -87 L56 -87 L598 709 L506 709 L-37 -87 Z " />
<glyph glyph-name="zero" unicode="0" horiz-adv-x="690" d="M314 -20 C518 -20 662 151 662 432 C662 617 568 720 405 720 C201 720 57 545 57 258 C57 79 152 -20 314 -20 L314 -20 Z M324 65 C214 65 155 136 155 269 C155 497 258 635 395 635 C503 635 564 560 564 420 C564 197 458 65 324 65 L324 65 Z " />
<glyph glyph-name="one" unicode="1" horiz-adv-x="417" d="M253 87 L350 700 L280 700 L107 640 L93 550 L238 595 L158 87 L27 87 L13 0 L364 0 L378 87 L253 87 Z " />
<glyph glyph-name="two" unicode="2" horiz-adv-x="558" d="M292 191 C478 336 531 412 531 530 C531 653 451 720 306 720 C240 720 169 705 115 680 L101 592 C165 620 231 635 295 635 C381 635 430 600 430 522 C430 434 390 375 259 271 L18 79 L5 0 L477 0 L490 85 L156 85 L292 191 Z " />
<glyph glyph-name="three" unicode="3" horiz-adv-x="569" d="M415 368 C491 402 536 470 536 551 C536 666 453 720 315 720 C250 720 184 706 135 687 L121 600 C179 621 236 635 299 635 C387 635 436 606 436 533 C436 456 385 403 263 403 L197 403 L184 319 L286 319 C368 319 415 286 415 213 C415 116 343 66 210 66 C132 66 62 86 18 115 L4 23 C56 -8 128 -20 211 -20 C405 -20 513 70 513 213 C513 292 480 344 415 368 L415 368 Z " />
<glyph glyph-name="four" unicode="4" horiz-adv-x="608" d="M582 239 L515 239 L553 479 L457 479 L419 239 L137 239 L437 700 L333 700 L25 221 L14 153 L405 153 L381 0 L477 0 L501 153 L568 153 L582 239 Z " />
<glyph glyph-name="five" unicode="5" horiz-adv-x="587" d="M557 612 L571 700 L138 700 L85 368 L142 328 C185 347 235 359 299 359 C394 359 443 317 443 235 C443 129 370 71 225 71 C163 71 112 78 37 110 L23 19 C71 -4 136 -15 218 -15 C421 -15 543 77 543 244 C543 379 466 445 319 445 C271 445 227 438 186 423 L216 612 L557 612 Z " />
<glyph glyph-name="six" unicode="6" horiz-adv-x="614" d="M437 635 C486 635 534 628 577 605 L591 692 C549 712 502 720 438 720 C210 720 54 539 54 274 C54 85 151 -16 310 -16 C479 -16 573 90 573 232 C573 367 490 438 363 438 C280 438 214 414 161 370 C191 526 287 635 437 635 L437 635 Z M342 349 C419 349 473 310 473 225 C473 120 411 67 323 67 C212 67 152 151 152 265 L152 276 C204 319 265 349 342 349 L342 349 Z " />
<glyph glyph-name="seven" unicode="7" horiz-adv-x="538" d="M92 700 L78 612 L441 612 C274 424 170 218 116 0 L219 0 C268 231 379 445 563 638 L573 700 L92 700 Z " />
<glyph glyph-name="eight" unicode="8" horiz-adv-x="631" d="M497 359 C575 407 603 469 603 539 C603 663 517 720 365 720 C210 720 112 640 112 516 C112 459 134 411 179 376 C86 326 33 255 33 168 C33 38 130 -20 285 -20 C459 -20 574 53 574 202 C574 271 548 325 497 359 L497 359 Z M360 639 C454 639 510 605 510 527 C510 474 489 429 416 392 L296 422 C241 436 206 467 206 526 C206 592 251 639 360 639 L360 639 Z M298 65 C184 65 127 108 127 184 C127 250 172 304 250 339 L282 330 L377 307 C454 289 480 247 480 192 C480 104 405 65 298 65 L298 65 Z " />
<glyph glyph-name="nine" unicode="9" horiz-adv-x="614" d="M341 720 C175 720 70 615 70 463 C70 331 148 253 288 253 C373 253 428 274 480 312 C459 175 392 65 224 65 C171 65 115 71 67 96 L54 8 C102 -14 162 -20 215 -20 C489 -20 587 189 587 445 C587 614 504 720 341 720 L341 720 Z M311 338 C220 338 169 384 169 476 C169 571 234 635 332 635 C436 635 489 565 489 436 C489 425 489 414 488 403 C440 365 382 338 311 338 L311 338 Z " />
<glyph glyph-name="colon" unicode="&#x3a;" horiz-adv-x="267" d="M165 400 C208 400 238 423 238 468 C238 504 211 523 175 523 C132 523 102 500 102 455 C102 419 129 400 165 400 L165 400 Z M95 -12 C138 -12 168 11 168 56 C168 92 141 111 105 111 C62 111 32 88 32 43 C32 7 59 -12 95 -12 L95 -12 Z " />
<glyph glyph-name="semicolon" unicode="&#x3b;" horiz-adv-x="241" d="M163 420 C206 420 236 443 236 488 C236 524 209 543 173 543 C130 543 100 520 100 475 C100 439 127 420 163 420 L163 420 Z M-5 -152 L70 -152 C136 -89 169 -18 169 44 C169 96 141 118 105 118 C60 118 30 87 30 43 C30 10 51 -15 81 -15 L86 -15 C81 -47 53 -98 -5 -152 L-5 -152 Z " />
<glyph glyph-name="less" unicode="&#x3c;" horiz-adv-x="389" d="M250 80 L313 139 L165 296 L355 435 L308 499 L81 332 L71 268 L250 80 Z " />
<glyph glyph-name="equal" unicode="&#x3d;" horiz-adv-x="469" d="M93 409 L80 328 L411 328 L424 409 L93 409 Z M66 239 L53 158 L384 158 L397 239 L66 239 Z " />
<glyph glyph-name="greater" unicode="&#x3e;" horiz-adv-x="390" d="M109 76 L336 243 L346 307 L167 495 L104 436 L252 279 L62 140 L109 76 Z " />
<glyph glyph-name="question" unicode="&#x3f;" horiz-adv-x="483" d="M491 515 C491 639 405 709 242 709 C197 709 144 701 95 680 L81 593 C128 615 181 624 228 624 C341 624 394 585 394 506 C394 417 322 347 165 337 L143 175 L225 175 L239 260 C405 289 491 388 491 515 L491 515 Z M175 111 C132 111 102 88 102 43 C102 7 129 -12 165 -12 C208 -12 238 11 238 56 C238 92 211 111 175 111 L175 111 Z " />
<glyph glyph-name="at" unicode="&#x40;" horiz-adv-x="769" d="M431 613 C199 613 38 457 38 223 C38 18 157 -93 354 -93 C410 -93 459 -83 501 -63 L478 4 C449 -10 415 -16 366 -16 C206 -16 118 71 118 227 C118 413 239 537 419 537 C576 537 676 455 676 326 C676 221 627 155 566 155 C536 155 526 169 531 201 L568 435 L512 435 L504 419 C478 434 451 440 415 440 C296 440 218 355 218 226 C218 135 267 82 349 82 C392 82 430 98 465 131 C481 97 514 84 552 84 C670 84 749 173 749 339 C749 506 625 613 431 613 L431 613 Z M371 148 C320 148 294 178 294 237 C294 318 340 376 413 376 C440 376 461 372 483 361 L459 217 C457 206 456 196 456 187 C430 160 403 148 371 148 L371 148 Z " />
<glyph glyph-name="A" unicode="A" horiz-adv-x="662" d="M514 0 L610 0 L449 700 L360 700 L-22 0 L80 0 L180 190 L474 190 L514 0 Z M222 270 L389 589 L457 270 L222 270 Z " />
<glyph glyph-name="B" unicode="B" horiz-adv-x="643" d="M500 364 C568 394 610 452 610 537 C610 635 546 700 417 700 L161 700 L50 0 L330 0 C480 0 585 84 585 218 C585 292 552 340 500 364 L500 364 Z M409 619 C485 619 518 581 518 524 C518 448 470 398 367 398 L207 398 L242 619 L409 619 Z M331 81 L157 81 L194 317 L363 317 C448 317 489 278 489 213 C489 125 426 81 331 81 L331 81 Z " />
<glyph glyph-name="C" unicode="C" horiz-adv-x="611" d="M358 -16 C421 -16 484 -6 537 22 L551 111 C487 77 433 66 367 66 C217 66 151 169 151 297 C151 503 259 638 448 638 C520 638 570 628 623 600 L637 683 C592 706 527 720 449 720 C209 720 55 556 55 285 C55 99 169 -16 358 -16 L358 -16 Z " />
<glyph glyph-name="D" unicode="D" horiz-adv-x="715" d="M360 700 L161 700 L50 0 L281 0 C537 0 687 156 687 405 C687 594 566 700 360 700 L360 700 Z M294 86 L158 86 L241 614 L355 614 C504 614 591 547 591 403 C591 202 479 86 294 86 L294 86 Z " />
<glyph glyph-name="E" unicode="E" horiz-adv-x="575" d="M577 614 L591 700 L161 700 L50 0 L486 0 L500 86 L158 86 L194 311 L493 311 L507 397 L207 397 L241 614 L577 614 Z " />
<glyph glyph-name="F" unicode="F" horiz-adv-x="544" d="M574 614 L588 700 L161 700 L50 0 L144 0 L191 294 L473 294 L487 383 L205 383 L241 614 L574 614 Z " />
<glyph glyph-name="G" unicode="G" horiz-adv-x="679" d="M459 638 C530 638 591 622 645 598 L659 684 C606 706 553 720 461 720 C217 720 55 539 55 291 C55 113 151 -16 367 -16 C442 -16 530 5 588 33 L637 341 L544 341 L504 86 C464 72 422 66 370 66 C223 66 151 159 151 301 C151 504 269 638 459 638 L459 638 Z " />
<glyph glyph-name="H" unicode="H" horiz-adv-x="735" d="M620 700 L572 397 L207 397 L255 700 L161 700 L50 0 L144 0 L193 311 L558 311 L509 0 L603 0 L714 700 L620 700 Z " />
<glyph glyph-name="I" unicode="I" horiz-adv-x="276" d="M161 700 L50 0 L144 0 L255 700 L161 700 Z " />
<glyph glyph-name="J" unicode="J" horiz-adv-x="514" d="M499 700 L132 700 L118 614 L391 614 L330 227 C312 112 268 65 150 65 C106 65 51 77 11 100 L-4 17 C41 -8 102 -16 155 -16 C321 -16 398 58 425 231 L499 700 Z " />
<glyph glyph-name="K" unicode="K" horiz-adv-x="669" d="M518 121 L439 336 C588 394 653 538 678 700 L586 700 C558 521 489 394 291 394 L206 394 L255 700 L161 700 L50 0 L144 0 L193 308 L278 308 C301 308 323 309 344 312 L435 67 C457 7 487 -11 548 -11 C566 -11 589 -8 602 -1 L614 73 C605 69 595 67 580 67 C555 67 535 75 518 121 L518 121 Z " />
<glyph glyph-name="L" unicode="L" horiz-adv-x="544" d="M158 86 L255 700 L161 700 L50 0 L487 0 L501 86 L158 86 Z " />
<glyph glyph-name="M" unicode="M" horiz-adv-x="848" d="M742 700 L430 302 L246 700 L161 700 L50 0 L139 0 L199 381 L224 548 C234 520 246 493 257 469 L383 198 L444 198 L657 469 C677 494 696 521 716 550 L687 382 L626 0 L716 0 L827 700 L742 700 Z " />
<glyph glyph-name="N" unicode="N" horiz-adv-x="734" d="M623 700 L545 210 L536 145 L246 700 L161 700 L50 0 L140 0 L218 491 C221 507 224 529 227 555 L517 0 L602 0 L713 700 L623 700 Z " />
<glyph glyph-name="O" unicode="O" horiz-adv-x="747" d="M355 -16 C566 -16 720 156 720 412 C720 590 619 720 425 720 C211 720 56 545 56 290 C56 111 158 -16 355 -16 L355 -16 Z M365 66 C223 66 152 164 152 301 C152 505 270 638 415 638 C553 638 623 538 623 401 C623 197 506 66 365 66 L365 66 Z " />
<glyph glyph-name="P" unicode="P" horiz-adv-x="648" d="M415 700 L161 700 L50 0 L144 0 L183 246 C229 227 277 218 359 218 C535 218 652 312 652 489 C652 635 557 700 415 700 L415 700 Z M352 302 C282 302 240 313 197 333 L241 614 L402 614 C492 614 554 575 554 478 C554 366 487 302 352 302 L352 302 Z " />
<glyph glyph-name="Q" unicode="Q" horiz-adv-x="747" d="M369 -16 C573 -8 720 162 720 412 C720 590 619 720 425 720 C211 720 56 545 56 290 C56 135 133 18 282 -10 L273 -46 C248 -148 301 -195 392 -195 C421 -195 452 -191 476 -183 L487 -109 C462 -116 441 -119 415 -119 C375 -119 348 -100 361 -47 L369 -16 Z M152 301 C152 505 270 638 415 638 C553 638 623 538 623 401 C623 197 506 66 365 66 C223 66 152 164 152 301 L152 301 Z " />
<glyph glyph-name="R" unicode="R" horiz-adv-x="654" d="M495 131 L433 278 C538 303 624 374 624 507 C624 635 541 700 409 700 L161 700 L50 0 L144 0 L186 268 L337 268 L412 86 C445 7 479 -11 531 -11 C550 -11 571 -8 587 -2 L599 76 C588 73 578 71 566 71 C537 71 515 83 495 131 L495 131 Z M242 615 L393 615 C473 615 526 586 526 501 C526 398 452 353 352 353 L200 353 L242 615 Z " />
<glyph glyph-name="S" unicode="S" horiz-adv-x="576" d="M229 -18 C424 -18 529 58 529 206 C529 310 466 368 324 409 C218 439 184 468 184 520 C184 601 249 638 369 638 C439 638 499 625 557 600 L571 685 C519 708 447 720 376 720 C201 720 93 648 93 510 C93 411 156 359 276 324 C391 291 434 258 434 190 C434 100 358 64 244 64 C151 64 81 84 29 120 L14 29 C64 2 141 -18 229 -18 L229 -18 Z " />
<glyph glyph-name="T" unicode="T" horiz-adv-x="582" d="M636 700 L86 700 L72 614 L299 614 L202 0 L296 0 L393 614 L622 614 L636 700 Z " />
<glyph glyph-name="U" unicode="U" horiz-adv-x="735" d="M606 122 L698 700 L605 700 L520 163 C474 114 412 64 332 64 C199 64 158 134 179 269 L247 700 L152 700 L84 269 C58 102 125 -16 313 -16 C404 -16 465 23 509 65 C512 22 534 -11 598 -11 C620 -11 641 -9 664 0 L676 76 C665 70 651 67 641 67 C606 67 600 86 606 122 L606 122 Z " />
<glyph glyph-name="V" unicode="V" horiz-adv-x="667" d="M619 700 L439 357 C391 265 340 165 308 104 C297 165 279 265 260 357 L188 700 L85 700 L248 0 L337 0 L722 700 L619 700 Z " />
<glyph glyph-name="W" unicode="W" horiz-adv-x="931" d="M884 700 L640 112 L584 700 L490 700 L249 117 L192 700 L91 700 L182 0 L277 0 L515 547 L571 0 L666 0 L979 700 L884 700 Z " />
<glyph glyph-name="X" unicode="X" horiz-adv-x="623" d="M678 700 L572 700 L338 409 L188 700 L89 700 L276 353 L-21 0 L85 0 L320 285 L472 0 L570 0 L383 342 L678 700 Z " />
<glyph glyph-name="Y" unicode="Y" horiz-adv-x="638" d="M689 700 L584 700 L426 471 C384 410 351 365 331 336 C318 370 298 421 278 470 L187 700 L87 700 L272 254 L232 0 L325 0 L364 249 L689 700 Z " />
<glyph glyph-name="Z" unicode="Z" horiz-adv-x="606" d="M619 630 L630 700 L117 700 L104 617 L345 617 C381 617 444 618 502 619 C465 580 416 528 381 489 L6 70 L-4 0 L533 0 L546 83 L263 83 C225 83 173 82 125 81 C167 125 209 171 234 198 L619 630 Z " />
<glyph glyph-name="bracketleft" unicode="&#x5b;" horiz-adv-x="354" d="M387 656 L399 735 L162 735 L26 -125 L263 -125 L276 -47 L124 -47 L236 656 L387 656 Z " />
<glyph glyph-name="backslash" unicode="&#x5c;" horiz-adv-x="544" d="M471 -87 L180 709 L88 709 L377 -87 L471 -87 Z " />
<glyph glyph-name="bracketright" unicode="&#x5d;" horiz-adv-x="354" d="M342 735 L105 735 L93 656 L244 656 L132 -47 L-18 -47 L-31 -125 L206 -125 L342 735 Z " />
<glyph glyph-name="asciicircum" unicode="&#x5e;" horiz-adv-x="444" d="M140 373 L279 599 L343 373 L429 396 L338 687 L242 687 L67 410 L140 373 Z " />
<glyph glyph-name="underscore" unicode="&#x5f;" horiz-adv-x="563" d="M23 0 L10 -81 L445 -81 L458 0 L23 0 Z " />
<glyph glyph-name="grave" unicode="&#x60;" horiz-adv-x="316" d="M311 591 L357 649 L154 820 L97 746 L311 591 Z " />
<glyph glyph-name="a" unicode="a" horiz-adv-x="615" d="M523 64 C497 64 489 80 493 108 L559 525 L491 525 L478 494 C443 527 388 541 331 541 C155 541 39 402 39 212 C39 70 115 -15 232 -15 C295 -15 353 5 400 53 C406 13 431 -11 487 -11 C510 -11 531 -8 554 0 L566 73 C552 67 542 64 523 64 L523 64 Z M264 65 C177 65 132 123 132 220 C132 356 206 461 331 461 C382 461 420 446 450 416 L406 140 C361 87 305 65 264 65 L264 65 Z " />
<glyph glyph-name="b" unicode="b" horiz-adv-x="593" d="M363 541 C301 541 246 517 203 474 L246 750 L154 750 L41 31 C111 -5 178 -15 259 -15 C456 -15 556 138 556 322 C556 451 488 541 363 541 L363 541 Z M258 65 C218 65 180 68 141 84 L188 383 C223 425 276 461 335 461 C417 461 463 406 463 315 C463 183 403 65 258 65 L258 65 Z " />
<glyph glyph-name="c" unicode="c" horiz-adv-x="477" d="M277 -15 C327 -15 369 -3 399 13 L412 95 C372 74 328 65 295 65 C184 65 132 133 132 231 C132 364 211 461 344 461 C396 461 433 451 464 436 L477 518 C445 533 403 541 352 541 C153 541 39 404 39 223 C39 79 116 -15 277 -15 L277 -15 Z " />
<glyph glyph-name="d" unicode="d" horiz-adv-x="616" d="M492 109 L594 750 L502 750 L466 523 C426 537 383 541 338 541 C147 541 38 403 38 202 C38 71 110 -15 233 -15 C299 -15 357 14 398 59 C403 15 428 -11 486 -11 C509 -11 530 -8 553 0 L565 73 C550 67 539 64 523 64 C499 64 487 77 492 109 L492 109 Z M260 65 C173 65 131 124 131 214 C131 363 205 461 338 461 C379 461 421 456 453 442 L406 143 C360 90 308 65 260 65 L260 65 Z " />
<glyph glyph-name="e" unicode="e" horiz-adv-x="532" d="M512 388 C512 483 443 541 332 541 C150 541 38 393 38 219 C38 80 116 -16 276 -16 C327 -16 378 -7 430 16 L444 101 C386 77 340 64 289 64 C178 64 134 132 132 228 C168 216 218 207 283 207 C448 207 512 283 512 388 L512 388 Z M318 461 C368 461 419 444 419 379 C419 321 379 282 295 282 C240 282 193 288 141 305 C163 391 226 461 318 461 L318 461 Z " />
<glyph glyph-name="f" unicode="f" horiz-adv-x="344" d="M369 682 C398 682 421 679 451 665 L464 748 C437 760 406 765 371 765 C254 765 177 699 155 560 L149 525 L63 525 L50 445 L137 445 L62 -30 C55 -75 38 -101 -13 -101 C-38 -101 -58 -96 -81 -84 L-94 -167 C-71 -179 -46 -184 -10 -184 C102 -184 139 -125 156 -18 L229 445 L384 445 L397 525 L242 525 L249 572 C261 648 302 682 369 682 L369 682 Z " />
<glyph glyph-name="g" unicode="g" horiz-adv-x="596" d="M494 525 L481 494 C446 524 398 541 333 541 C155 541 43 420 43 234 C43 106 118 27 251 27 C303 27 354 41 401 81 L393 30 C378 -69 322 -121 223 -121 C154 -121 92 -113 45 -91 L30 -180 C74 -199 134 -206 197 -206 C364 -206 459 -123 483 28 L562 525 L494 525 Z M262 107 C180 107 137 159 137 249 C137 378 204 461 333 461 C379 461 422 446 453 416 L415 173 C361 119 310 107 262 107 L262 107 Z " />
<glyph glyph-name="h" unicode="h" horiz-adv-x="621" d="M536 64 C510 64 501 80 506 109 L540 324 C560 448 511 541 372 541 C306 541 251 519 203 476 L246 750 L154 750 L35 0 L127 0 L188 385 C244 441 296 461 349 461 C428 461 461 409 448 325 L415 114 C403 38 419 -11 501 -11 C515 -11 543 -9 567 0 L579 73 C565 66 549 64 536 64 L536 64 Z " />
<glyph glyph-name="i" unicode="i" horiz-adv-x="275" d="M193 637 C234 637 264 664 264 712 C264 746 241 770 204 770 C166 770 133 742 133 695 C133 660 158 637 193 637 L193 637 Z M144 -11 C165 -11 190 -7 210 0 L222 73 C209 67 194 64 182 64 C155 64 144 77 149 108 L215 525 L123 525 L57 106 C48 47 59 -11 144 -11 L144 -11 Z " />
<glyph glyph-name="j" unicode="j" horiz-adv-x="255" d="M193 637 C234 637 264 664 264 712 C264 746 241 770 204 770 C166 770 133 742 133 695 C133 660 158 637 193 637 L193 637 Z M-69 -206 C48 -206 113 -150 134 -20 L220 525 L128 525 L42 -20 C30 -87 4 -121 -65 -121 C-79 -121 -95 -119 -113 -114 L-128 -196 C-112 -203 -88 -206 -69 -206 L-69 -206 Z " />
<glyph glyph-name="k" unicode="k" horiz-adv-x="566" d="M426 94 L326 300 L574 525 L460 525 L171 270 L247 750 L155 750 L36 0 L128 0 L153 156 L253 242 L344 55 C370 2 395 -11 440 -11 C462 -11 485 -8 507 0 L519 73 C504 67 493 64 476 64 C456 64 436 73 426 94 L426 94 Z " />
<glyph glyph-name="l" unicode="l" horiz-adv-x="283" d="M153 -11 C187 -11 216 -5 238 7 L250 80 C231 69 210 64 190 64 C140 64 140 92 149 146 L245 750 L153 750 L54 128 C37 24 79 -11 153 -11 L153 -11 Z " />
<glyph glyph-name="m" unicode="m" horiz-adv-x="880" d="M795 64 C771 64 760 79 765 108 L799 325 C821 467 763 541 651 541 C587 541 535 514 484 453 C464 504 420 541 345 541 C286 541 239 518 192 466 L181 525 L119 525 L36 0 L128 0 L189 384 C231 435 276 461 322 461 C389 461 414 411 401 328 L349 0 L441 0 L493 329 C496 345 497 362 497 378 C539 437 580 461 624 461 C690 461 723 418 708 326 L674 113 C662 39 680 -11 759 -11 C783 -11 807 -7 826 0 L838 73 C824 67 811 64 795 64 L795 64 Z " />
<glyph glyph-name="n" unicode="n" horiz-adv-x="616" d="M532 64 C508 64 496 77 501 107 L535 324 C556 457 501 541 370 541 C306 541 244 517 192 465 L181 525 L119 525 L36 0 L128 0 L189 384 C237 436 293 461 345 461 C422 461 458 414 442 316 L410 114 C398 38 416 -11 496 -11 C519 -11 543 -7 562 0 L574 73 C559 67 550 64 532 64 L532 64 Z " />
<glyph glyph-name="o" unicode="o" horiz-adv-x="598" d="M269 -16 C444 -16 565 121 558 324 C554 448 471 541 330 541 C156 541 34 406 41 203 C45 78 128 -16 269 -16 L269 -16 Z M282 64 C189 64 134 124 134 227 C134 368 215 461 316 461 C410 461 465 401 465 297 C465 158 387 64 282 64 L282 64 Z " />
<glyph glyph-name="p" unicode="p" horiz-adv-x="592" d="M362 541 C298 541 239 513 197 470 L198 525 L119 525 L6 -190 L98 -190 L128 -2 C169 -11 213 -15 253 -15 C458 -15 555 135 555 326 C555 450 486 541 362 541 L362 541 Z M258 65 C219 65 177 69 141 83 L189 385 C220 423 275 461 332 461 C417 461 462 405 462 316 C462 175 397 65 258 65 L258 65 Z " />
<glyph glyph-name="q" unicode="q" horiz-adv-x="594" d="M491 525 L478 494 C443 527 389 541 335 541 C149 541 40 396 40 213 C40 67 111 -15 234 -15 C288 -15 347 5 392 53 L354 -190 L446 -190 L559 525 L491 525 Z M406 141 C361 87 307 65 264 65 C178 65 133 120 133 214 C133 354 206 461 331 461 C382 461 420 446 450 416 L406 141 Z " />
<glyph glyph-name="r" unicode="r" horiz-adv-x="385" d="M367 541 C311 541 250 517 197 460 L198 525 L119 525 L36 0 L128 0 L186 362 C230 421 285 454 344 454 C364 454 381 452 397 446 L411 535 C399 539 382 541 367 541 L367 541 Z " />
<glyph glyph-name="s" unicode="s" horiz-adv-x="481" d="M185 -16 C337 -16 427 40 427 153 C427 242 384 288 285 309 C192 329 159 345 159 388 C159 432 199 461 287 461 C342 461 386 453 441 430 L455 513 C412 530 364 541 292 541 C152 541 67 480 67 378 C67 294 118 251 223 229 C306 212 335 191 335 144 C335 92 292 64 197 64 C135 64 76 79 23 109 L9 21 C53 -1 118 -16 185 -16 L185 -16 Z " />
<glyph glyph-name="t" unicode="t" horiz-adv-x="425" d="M226 445 L427 445 L440 525 L239 525 L259 652 L192 652 L147 525 L62 525 L49 445 L133 445 L93 189 C70 46 137 -11 242 -11 C289 -11 327 -3 369 15 L382 93 C347 79 305 69 271 69 C198 69 172 102 185 187 L226 445 Z " />
<glyph glyph-name="u" unicode="u" horiz-adv-x="607" d="M516 64 C489 64 480 80 485 110 L551 525 L459 525 L398 141 C351 86 297 65 250 65 C173 65 138 104 155 205 L206 525 L114 525 L63 200 C41 59 101 -15 221 -15 C298 -15 348 10 392 53 C398 13 424 -11 482 -11 C499 -11 521 -9 546 0 L558 73 C543 67 532 64 516 64 L516 64 Z " />
<glyph glyph-name="v" unicode="v" horiz-adv-x="551" d="M465 525 C422 372 349 221 255 93 L159 525 L60 525 L188 0 L274 0 C404 151 507 340 558 525 L465 525 Z " />
<glyph glyph-name="w" unicode="w" horiz-adv-x="807" d="M719 525 C684 376 622 218 538 94 L493 525 L403 525 L224 115 L164 525 L66 525 L163 0 L253 0 L426 385 L470 0 L560 0 C678 149 761 339 810 525 L719 525 Z " />
<glyph glyph-name="x" unicode="x" horiz-adv-x="524" d="M551 525 L442 525 L273 324 L167 525 L65 525 L207 266 L-21 0 L88 0 L256 201 L364 0 L466 0 L321 258 L551 525 Z " />
<glyph glyph-name="y" unicode="y" horiz-adv-x="557" d="M474 525 C424 365 345 220 259 94 L163 525 L67 525 L193 4 C143 -61 93 -120 47 -170 L150 -170 C300 -10 476 245 568 525 L474 525 Z " />
<glyph glyph-name="z" unicode="z" horiz-adv-x="513" d="M513 525 L85 525 L73 449 L381 449 L7 58 L-2 0 L438 0 L450 76 L131 76 L504 467 L513 525 Z " />
<glyph glyph-name="braceleft" unicode="&#x7b;" horiz-adv-x="351" d="M197 -130 C217 -130 241 -129 260 -124 L272 -48 C258 -51 245 -52 233 -52 C178 -52 158 -20 167 37 L191 188 C203 266 165 295 136 306 C168 316 216 346 228 424 L252 573 C263 639 299 662 345 662 C357 662 372 661 384 658 L396 734 C378 739 361 741 338 741 C254 741 184 687 167 578 L145 440 C134 371 83 350 49 349 L36 263 C70 263 113 240 102 171 L79 27 C64 -69 113 -130 197 -130 L197 -130 Z " />
<glyph glyph-name="bar" unicode="&#x7c;" horiz-adv-x="270" d="M165 750 L30 -100 L126 -100 L261 750 L165 750 Z " />
<glyph glyph-name="braceright" unicode="&#x7d;" horiz-adv-x="351" d="M168 741 C148 741 126 740 105 735 L93 658 C108 661 121 662 133 662 C188 662 208 630 199 573 L175 423 C162 344 201 315 229 304 C198 294 150 264 138 187 L114 37 C104 -28 67 -52 21 -52 C9 -52 -6 -51 -19 -48 L-30 -123 C-11 -128 4 -130 27 -130 C111 -130 181 -77 199 33 L221 170 C232 239 282 260 316 261 L330 347 C296 347 253 370 264 439 L287 584 C302 679 252 741 168 741 L168 741 Z " />
<glyph glyph-name="asciitilde" unicode="&#x7e;" horiz-adv-x="519" d="M411 343 C391 311 368 293 338 293 C290 293 248 342 185 342 C129 342 79 303 57 257 L111 205 C131 237 155 255 185 255 C240 255 278 206 338 206 C393 206 446 244 467 289 L411 343 Z " />
<glyph glyph-name="exclamdown" unicode="&#xa1;" horiz-adv-x="255" d="M158 423 C201 423 231 446 231 491 C231 527 204 546 168 546 C125 546 95 523 95 478 C95 442 122 423 158 423 L158 423 Z M11 -175 L106 -175 L180 350 L103 350 L11 -175 Z " />
<glyph glyph-name="cent" unicode="&#xa2;" horiz-adv-x="486" d="M354 542 C406 542 443 532 474 517 L487 599 C461 611 429 619 389 621 L409 741 L326 741 L306 618 C147 595 49 471 49 310 C49 184 105 97 219 73 L200 -50 L283 -50 L301 66 C342 69 384 80 409 94 L422 176 C385 156 344 146 306 146 C195 146 142 213 142 318 C142 448 224 542 354 542 L354 542 Z " />
<glyph glyph-name="sterling" unicode="&#xa3;" horiz-adv-x="551" d="M382 636 C439 636 489 625 530 605 L543 689 C500 710 447 719 380 719 C233 719 119 640 119 472 C119 437 124 405 129 373 L69 373 L53 298 L140 298 C141 286 142 274 142 262 C142 170 80 117 34 86 L20 0 L475 0 L489 86 L137 86 C174 116 230 173 230 272 C230 281 230 289 229 298 L443 298 L459 373 L222 373 C217 411 211 448 211 483 C211 593 286 636 382 636 L382 636 Z " />
<glyph glyph-name="currency" unicode="&#xa4;" horiz-adv-x="664" d="M583 402 C583 433 578 462 569 488 L676 584 L621 655 L518 564 C485 593 439 610 382 610 C328 610 279 595 239 568 L169 655 L101 593 L173 504 C136 454 115 389 115 318 C115 282 122 249 134 220 L38 135 L93 64 L188 150 C222 124 265 109 319 109 C371 109 418 124 457 149 L527 63 L596 125 L524 213 C562 264 583 330 583 402 L583 402 Z M332 188 C253 188 206 240 206 325 C206 450 275 532 369 532 C446 532 492 481 492 395 C492 271 425 188 332 188 L332 188 Z " />
<glyph glyph-name="yen" unicode="&#xa5;" horiz-adv-x="640" d="M686 700 L574 700 L337 351 L209 700 L93 700 L252 321 L135 321 L124 254 L274 254 L264 191 L116 191 L105 124 L254 124 L234 0 L329 0 L349 124 L494 124 L505 191 L359 191 L369 254 L513 254 L524 321 L412 321 L686 700 Z " />
<glyph glyph-name="brokenbar" unicode="&#xa6;" horiz-adv-x="270" d="M113 421 L209 421 L261 750 L165 750 L113 421 Z M178 229 L82 229 L30 -100 L126 -100 L178 229 Z " />
<glyph glyph-name="section" unicode="&#xa7;" horiz-adv-x="540" d="M343 646 C408 646 460 634 518 611 L531 693 C484 712 430 721 356 721 C202 721 107 657 107 539 C107 482 130 441 170 414 C97 387 56 329 56 251 C56 174 110 133 232 111 C326 94 360 70 360 21 C360 -58 309 -95 199 -95 C127 -95 63 -80 4 -44 L-9 -129 C38 -156 110 -170 188 -170 C357 -170 449 -103 449 24 C449 77 434 115 402 143 C465 175 499 233 499 307 C499 391 449 437 336 458 C232 477 195 498 195 554 C195 611 245 646 343 646 L343 646 Z M411 286 C411 235 383 197 327 181 L291 190 C181 210 144 232 144 278 C144 331 188 371 268 379 C376 359 411 335 411 286 L411 286 Z " />
<glyph glyph-name="dieresis" unicode="&#xa8;" horiz-adv-x="393" d="M150 637 C191 637 221 664 221 712 C221 746 198 770 161 770 C123 770 90 742 90 695 C90 660 115 637 150 637 L150 637 Z M372 637 C413 637 443 664 443 712 C443 746 420 770 383 770 C345 770 312 742 312 695 C312 660 337 637 372 637 L372 637 Z " />
<glyph glyph-name="copyright" unicode="&#xa9;" horiz-adv-x="762" d="M448 683 C223 683 54 514 54 275 C54 99 162 -17 337 -17 C564 -17 732 153 732 392 C732 567 625 683 448 683 L448 683 Z M436 609 C577 609 661 518 661 380 C661 191 530 57 349 57 C209 57 124 148 124 287 C124 476 257 609 436 609 L436 609 Z M390 208 C331 208 296 248 296 310 C296 397 353 456 435 456 C473 456 498 448 523 439 L534 512 C506 523 476 529 443 529 C308 529 215 435 215 299 C215 200 275 135 376 135 C411 135 455 142 485 157 L496 228 C461 211 426 208 390 208 L390 208 Z " />
<glyph glyph-name="ordfeminine" unicode="&#xaa;" horiz-adv-x="417" d="M270 721 C224 721 182 712 145 696 L134 628 C169 643 206 652 250 652 C283 652 340 645 330 580 L324 542 C295 554 262 558 229 558 C131 558 72 507 72 423 C72 366 109 331 176 331 C229 331 269 348 302 372 L303 341 L364 341 L403 587 C419 691 353 721 270 721 L270 721 Z M148 436 C148 482 178 503 234 503 C260 503 290 498 316 488 L307 431 C279 407 244 390 208 390 C170 390 148 404 148 436 L148 436 Z " />
<glyph glyph-name="guillemotleft" unicode="&#xab;" horiz-adv-x="554" d="M268 490 L43 292 L35 238 L196 41 L255 95 L120 262 L315 434 L268 490 Z M498 490 L273 292 L265 238 L426 41 L486 95 L350 262 L545 434 L498 490 Z " />
<glyph glyph-name="registered" unicode="&#xae;" horiz-adv-x="762" d="M448 683 C223 683 54 514 54 275 C54 99 162 -17 337 -17 C564 -17 732 153 732 392 C732 567 625 683 448 683 L448 683 Z M349 57 C209 57 124 148 124 287 C124 476 257 609 436 609 C577 609 661 518 661 380 C661 191 530 57 349 57 L349 57 Z M441 521 L290 521 L231 151 L300 151 L318 266 L400 266 L407 266 L446 151 L524 151 L477 278 C536 298 566 346 566 416 C566 484 523 521 441 521 L441 521 Z M416 333 L329 333 L349 456 L435 456 C475 456 495 439 495 405 C495 358 468 333 416 333 L416 333 Z " />
<glyph glyph-name="macron" unicode="&#xaf;" horiz-adv-x="337" d="M392 735 L95 735 L83 658 L380 658 L392 735 Z " />
<glyph glyph-name="degree" unicode="&#xb0;" horiz-adv-x="370" d="M229 459 C331 459 385 529 385 628 C385 708 331 755 254 755 C152 755 95 684 95 586 C95 505 149 459 229 459 L229 459 Z M233 520 C193 520 168 546 168 594 C168 652 202 693 251 693 C289 693 312 665 312 619 C312 562 280 520 233 520 L233 520 Z " />
<glyph glyph-name="plusminus" unicode="&#xb1;" horiz-adv-x="489" d="M310 431 L336 591 L260 591 L234 431 L79 431 L67 356 L223 356 L197 196 L273 196 L299 356 L452 356 L464 431 L310 431 Z M49 63 L380 63 L393 143 L62 143 L49 63 Z " />
<glyph glyph-name="acute" unicode="&#xb4;" horiz-adv-x="292" d="M124 590 L348 745 L294 820 L81 649 L124 590 Z " />
<glyph glyph-name="paragraph" unicode="&#xb6;" horiz-adv-x="608" d="M287 248 L243 -28 L315 -28 L430 700 L330 700 C159 700 60 604 60 430 C60 310 130 248 258 248 L287 248 Z M519 700 L410 12 C394 -81 342 -103 270 -103 C244 -103 218 -101 187 -91 L176 -161 C206 -170 244 -172 279 -172 C377 -172 462 -121 484 21 L592 700 L519 700 Z " />
<glyph glyph-name="periodcentered" unicode="&#xb7;" horiz-adv-x="256" d="M137 276 C178 276 208 303 208 351 C208 385 185 409 148 409 C110 409 77 381 77 334 C77 299 102 276 137 276 L137 276 Z " />
<glyph glyph-name="cedilla" unicode="&#xb8;" horiz-adv-x="256" d="M36 -243 C107 -243 173 -207 173 -127 C173 -76 139 -48 85 -46 L107 4 L42 4 L-5 -96 L32 -96 C70 -96 90 -109 90 -136 C90 -168 67 -181 32 -181 C8 -181 -23 -174 -47 -158 L-57 -223 C-31 -237 -2 -243 36 -243 L36 -243 Z " />
<glyph glyph-name="ordmasculine" unicode="&#xba;" horiz-adv-x="445" d="M236 331 C359 331 447 422 447 558 C447 655 391 721 294 721 C166 721 82 628 82 493 C82 396 136 331 236 331 L236 331 Z M247 395 C191 395 158 435 158 501 C158 599 213 657 284 657 C338 657 369 617 369 552 C369 453 317 395 247 395 L247 395 Z " />
<glyph glyph-name="guillemotright" unicode="&#xbb;" horiz-adv-x="555" d="M58 35 L283 233 L291 287 L130 484 L70 430 L206 263 L11 91 L58 35 Z M288 35 L513 233 L521 287 L360 484 L301 430 L436 263 L241 91 L288 35 Z " />
<glyph glyph-name="onequarter" unicode="&#xbc;" horiz-adv-x="851" d="M688 708 L104 -14 L198 -14 L781 708 L688 708 Z M58 315 L288 315 L299 382 L226 382 L276 700 L220 700 L109 650 L97 574 L183 613 L147 382 L69 382 L58 315 Z M806 143 L759 143 L778 263 L701 263 L682 143 L537 143 L717 385 L636 385 L442 132 L434 79 L672 79 L659 0 L736 0 L749 79 L796 79 L806 143 Z " />
<glyph glyph-name="onehalf" unicode="&#xbd;" horiz-adv-x="899" d="M685 708 L101 -14 L195 -14 L778 708 L685 708 Z M55 315 L285 315 L296 382 L223 382 L273 700 L221 700 L107 659 L96 589 L182 619 L145 382 L66 382 L55 315 Z M856 278 C856 359 805 396 713 396 C666 396 614 384 578 365 L567 299 C610 317 643 329 700 328 C744 327 775 313 775 265 C775 183 645 118 518 69 L507 0 L828 0 L839 67 L658 67 C774 115 856 189 856 278 L856 278 Z " />
<glyph glyph-name="threequarters" unicode="&#xbe;" horiz-adv-x="891" d="M728 708 L145 -14 L238 -14 L822 708 L728 708 Z M380 437 C380 475 366 500 340 514 C374 534 394 566 394 607 C394 675 349 707 253 707 C195 707 154 699 120 691 L110 626 C143 635 185 643 233 643 C291 643 320 630 320 594 C320 557 287 539 237 539 L161 539 L152 480 L231 480 C276 480 303 466 303 435 C303 390 266 371 192 371 C140 371 95 379 63 390 L52 321 C84 312 128 304 192 304 C318 304 380 364 380 437 L380 437 Z M846 143 L799 143 L818 263 L740 263 L721 143 L581 143 L760 385 L677 385 L483 132 L475 79 L711 79 L698 0 L776 0 L789 79 L836 79 L846 143 Z " />
<glyph glyph-name="questiondown" unicode="&#xbf;" horiz-adv-x="479" d="M307 414 C350 414 380 437 380 482 C380 518 353 537 317 537 C274 537 244 514 244 469 C244 433 271 414 307 414 L307 414 Z M254 -99 C141 -99 88 -60 88 19 C88 108 160 178 317 188 L339 350 L257 350 L243 265 C77 236 -9 137 -9 10 C-9 -114 77 -184 240 -184 C285 -184 338 -176 387 -155 L401 -68 C354 -90 301 -99 254 -99 L254 -99 Z " />
<glyph glyph-name="Agrave" unicode="&#xc0;" horiz-adv-x="662" d="M541 825 L353 960 L295 875 L498 764 L541 825 Z M514 0 L610 0 L449 700 L360 700 L-22 0 L80 0 L180 190 L474 190 L514 0 Z M222 270 L389 589 L457 270 L222 270 Z " />
<glyph glyph-name="Aacute" unicode="&#xc1;" horiz-adv-x="662" d="M559 875 L518 959 L287 824 L321 764 L559 875 Z M514 0 L610 0 L449 700 L360 700 L-22 0 L80 0 L180 190 L474 190 L514 0 Z M222 270 L389 589 L457 270 L222 270 Z " />
<glyph glyph-name="Acircumflex" unicode="&#xc2;" horiz-adv-x="662" d="M426 865 L547 764 L592 814 L441 962 L244 814 L274 764 L426 865 Z M514 0 L610 0 L449 700 L360 700 L-22 0 L80 0 L180 190 L474 190 L514 0 Z M222 270 L389 589 L457 270 L222 270 Z " />
<glyph glyph-name="Atilde" unicode="&#xc3;" horiz-adv-x="662" d="M365 846 C405 846 429 804 489 804 C540 804 579 843 605 906 L538 929 C526 904 511 886 487 886 C444 886 421 928 362 928 C312 928 270 890 246 830 L312 803 C324 827 338 846 365 846 L365 846 Z M514 0 L610 0 L449 700 L360 700 L-22 0 L80 0 L180 190 L474 190 L514 0 Z M222 270 L389 589 L457 270 L222 270 Z " />
<glyph glyph-name="Adieresis" unicode="&#xc4;" horiz-adv-x="662" d="M304 789 C343 789 372 813 372 860 C372 893 349 918 313 918 C276 918 244 892 244 846 C244 812 269 789 304 789 L304 789 Z M535 789 C574 789 603 813 603 860 C603 893 580 918 544 918 C507 918 475 892 475 846 C475 812 500 789 535 789 L535 789 Z M514 0 L610 0 L449 700 L360 700 L-22 0 L80 0 L180 190 L474 190 L514 0 Z M222 270 L389 589 L457 270 L222 270 Z " />
<glyph glyph-name="Aring" unicode="&#xc5;" horiz-adv-x="662" d="M420 754 C499 754 557 806 557 885 C557 947 514 995 437 995 C355 995 298 943 298 864 C298 802 341 754 420 754 L420 754 Z M431 936 C465 936 489 914 489 879 C489 839 464 813 424 813 C390 813 366 834 366 869 C366 909 390 936 431 936 L431 936 Z M514 0 L610 0 L449 700 L360 700 L-22 0 L80 0 L180 190 L474 190 L514 0 Z M222 270 L389 589 L457 270 L222 270 Z " />
<glyph glyph-name="AE" unicode="&#xc6;" horiz-adv-x="957" d="M959 614 L973 700 L528 700 L-57 0 L52 0 L209 190 L462 190 L432 0 L868 0 L882 86 L540 86 L576 311 L875 311 L889 397 L589 397 L623 614 L959 614 Z M275 270 L523 571 L475 270 L275 270 Z " />
<glyph glyph-name="Ccedilla" unicode="&#xc7;" horiz-adv-x="611" d="M448 638 C520 638 570 628 623 600 L637 683 C592 706 527 720 449 720 C209 720 55 556 55 285 C55 119 146 10 299 -12 L260 -96 L297 -96 C335 -96 355 -109 355 -136 C355 -168 332 -181 297 -181 C273 -181 242 -174 218 -158 L208 -223 C234 -237 263 -243 301 -243 C372 -243 438 -207 438 -127 C438 -76 404 -48 350 -46 L363 -16 C424 -15 485 -5 537 22 L551 111 C487 77 433 66 367 66 C217 66 151 169 151 297 C151 503 259 638 448 638 L448 638 Z " />
<glyph glyph-name="Egrave" unicode="&#xc8;" horiz-adv-x="575" d="M524 825 L336 960 L278 875 L481 764 L524 825 Z M577 614 L591 700 L161 700 L50 0 L486 0 L500 86 L158 86 L194 311 L493 311 L507 397 L207 397 L241 614 L577 614 Z " />
<glyph glyph-name="Eacute" unicode="&#xc9;" horiz-adv-x="575" d="M542 875 L501 959 L270 824 L304 764 L542 875 Z M577 614 L591 700 L161 700 L50 0 L486 0 L500 86 L158 86 L194 311 L493 311 L507 397 L207 397 L241 614 L577 614 Z " />
<glyph glyph-name="Ecircumflex" unicode="&#xca;" horiz-adv-x="575" d="M409 865 L530 764 L575 814 L424 962 L227 814 L257 764 L409 865 Z M577 614 L591 700 L161 700 L50 0 L486 0 L500 86 L158 86 L194 311 L493 311 L507 397 L207 397 L241 614 L577 614 Z " />
<glyph glyph-name="Edieresis" unicode="&#xcb;" horiz-adv-x="575" d="M287 789 C326 789 355 813 355 860 C355 893 332 918 296 918 C259 918 227 892 227 846 C227 812 252 789 287 789 L287 789 Z M518 789 C557 789 586 813 586 860 C586 893 563 918 527 918 C490 918 458 892 458 846 C458 812 483 789 518 789 L518 789 Z M577 614 L591 700 L161 700 L50 0 L486 0 L500 86 L158 86 L194 311 L493 311 L507 397 L207 397 L241 614 L577 614 Z " />
<glyph glyph-name="Igrave" unicode="&#xcc;" horiz-adv-x="276" d="M305 764 L348 825 L160 960 L102 875 L305 764 Z M161 700 L50 0 L144 0 L255 700 L161 700 Z " />
<glyph glyph-name="Iacute" unicode="&#xcd;" horiz-adv-x="276" d="M128 764 L366 875 L325 959 L94 824 L128 764 Z M161 700 L50 0 L144 0 L255 700 L161 700 Z " />
<glyph glyph-name="Icircumflex" unicode="&#xce;" horiz-adv-x="276" d="M81 764 L233 865 L354 764 L399 814 L248 962 L51 814 L81 764 Z M161 700 L50 0 L144 0 L255 700 L161 700 Z " />
<glyph glyph-name="Idieresis" unicode="&#xcf;" horiz-adv-x="276" d="M111 789 C150 789 179 813 179 860 C179 893 156 918 120 918 C83 918 51 892 51 846 C51 812 76 789 111 789 L111 789 Z M342 789 C381 789 410 813 410 860 C410 893 387 918 351 918 C314 918 282 892 282 846 C282 812 307 789 342 789 L342 789 Z M161 700 L50 0 L144 0 L255 700 L161 700 Z " />
<glyph glyph-name="Eth" unicode="&#xd0;" horiz-adv-x="720" d="M365 700 L166 700 L118 398 L60 398 L46 310 L104 310 L55 0 L286 0 C542 0 692 156 692 405 C692 594 571 700 365 700 L365 700 Z M299 86 L163 86 L198 310 L349 310 L363 398 L212 398 L246 614 L360 614 C509 614 596 547 596 403 C596 202 484 86 299 86 L299 86 Z " />
<glyph glyph-name="Ntilde" unicode="&#xd1;" horiz-adv-x="734" d="M401 846 C441 846 465 804 525 804 C576 804 615 843 641 906 L574 929 C562 904 547 886 523 886 C480 886 457 928 398 928 C348 928 306 890 282 830 L348 803 C360 827 374 846 401 846 L401 846 Z M623 700 L545 210 L536 145 L246 700 L161 700 L50 0 L140 0 L218 491 C221 507 224 529 227 555 L517 0 L602 0 L713 700 L623 700 Z " />
<glyph glyph-name="Ograve" unicode="&#xd2;" horiz-adv-x="747" d="M541 764 L584 825 L396 960 L338 875 L541 764 Z M355 -16 C566 -16 720 156 720 412 C720 590 619 720 425 720 C211 720 56 545 56 290 C56 111 158 -16 355 -16 L355 -16 Z M365 66 C223 66 152 164 152 301 C152 505 270 638 415 638 C553 638 623 538 623 401 C623 197 506 66 365 66 L365 66 Z " />
<glyph glyph-name="Oacute" unicode="&#xd3;" horiz-adv-x="747" d="M364 764 L602 875 L561 959 L330 824 L364 764 Z M355 -16 C566 -16 720 156 720 412 C720 590 619 720 425 720 C211 720 56 545 56 290 C56 111 158 -16 355 -16 L355 -16 Z M365 66 C223 66 152 164 152 301 C152 505 270 638 415 638 C553 638 623 538 623 401 C623 197 506 66 365 66 L365 66 Z " />
<glyph glyph-name="Ocircumflex" unicode="&#xd4;" horiz-adv-x="747" d="M317 764 L469 865 L590 764 L635 814 L484 962 L287 814 L317 764 Z M355 -16 C566 -16 720 156 720 412 C720 590 619 720 425 720 C211 720 56 545 56 290 C56 111 158 -16 355 -16 L355 -16 Z M365 66 C223 66 152 164 152 301 C152 505 270 638 415 638 C553 638 623 538 623 401 C623 197 506 66 365 66 L365 66 Z " />
<glyph glyph-name="Otilde" unicode="&#xd5;" horiz-adv-x="747" d="M581 929 C569 904 554 886 530 886 C487 886 464 928 405 928 C355 928 313 890 289 830 L355 803 C367 827 381 846 408 846 C448 846 472 804 532 804 C583 804 622 843 648 906 L581 929 Z M355 -16 C566 -16 720 156 720 412 C720 590 619 720 425 720 C211 720 56 545 56 290 C56 111 158 -16 355 -16 L355 -16 Z M365 66 C223 66 152 164 152 301 C152 505 270 638 415 638 C553 638 623 538 623 401 C623 197 506 66 365 66 L365 66 Z " />
<glyph glyph-name="Odieresis" unicode="&#xd6;" horiz-adv-x="747" d="M347 789 C386 789 415 813 415 860 C415 893 392 918 356 918 C319 918 287 892 287 846 C287 812 312 789 347 789 L347 789 Z M578 789 C617 789 646 813 646 860 C646 893 623 918 587 918 C550 918 518 892 518 846 C518 812 543 789 578 789 L578 789 Z M355 -16 C566 -16 720 156 720 412 C720 590 619 720 425 720 C211 720 56 545 56 290 C56 111 158 -16 355 -16 L355 -16 Z M365 66 C223 66 152 164 152 301 C152 505 270 638 415 638 C553 638 623 538 623 401 C623 197 506 66 365 66 L365 66 Z " />
<glyph glyph-name="multiply" unicode="&#xd7;" horiz-adv-x="440" d="M406 403 L356 456 L235 347 L148 456 L80 401 L169 288 L44 175 L93 122 L215 231 L301 122 L370 177 L280 290 L406 403 Z " />
<glyph glyph-name="Oslash" unicode="&#xd8;" horiz-adv-x="763" d="M783 670 L745 722 L652 634 C602 688 529 720 433 720 C219 720 64 545 64 290 C64 225 78 166 104 119 L9 29 L46 -23 L142 67 C192 15 266 -16 363 -16 C574 -16 728 156 728 412 C728 476 715 534 689 582 L783 670 Z M160 301 C160 505 278 638 423 638 C494 638 546 612 581 568 L179 189 C166 222 160 260 160 301 L160 301 Z M631 401 C631 197 514 66 373 66 C301 66 248 91 212 133 L613 510 C625 478 631 441 631 401 L631 401 Z " />
<glyph glyph-name="Ugrave" unicode="&#xd9;" horiz-adv-x="735" d="M578 825 L390 960 L332 875 L535 764 L578 825 Z M606 122 L698 700 L605 700 L520 163 C474 114 412 64 332 64 C199 64 158 134 179 269 L247 700 L152 700 L84 269 C58 102 125 -16 313 -16 C404 -16 465 23 509 65 C512 22 534 -11 598 -11 C620 -11 641 -9 664 0 L676 76 C665 70 651 67 641 67 C606 67 600 86 606 122 L606 122 Z " />
<glyph glyph-name="Uacute" unicode="&#xda;" horiz-adv-x="735" d="M596 875 L555 959 L324 824 L358 764 L596 875 Z M606 122 L698 700 L605 700 L520 163 C474 114 412 64 332 64 C199 64 158 134 179 269 L247 700 L152 700 L84 269 C58 102 125 -16 313 -16 C404 -16 465 23 509 65 C512 22 534 -11 598 -11 C620 -11 641 -9 664 0 L676 76 C665 70 651 67 641 67 C606 67 600 86 606 122 L606 122 Z " />
<glyph glyph-name="Ucircumflex" unicode="&#xdb;" horiz-adv-x="735" d="M463 865 L584 764 L629 814 L478 962 L281 814 L311 764 L463 865 Z M606 122 L698 700 L605 700 L520 163 C474 114 412 64 332 64 C199 64 158 134 179 269 L247 700 L152 700 L84 269 C58 102 125 -16 313 -16 C404 -16 465 23 509 65 C512 22 534 -11 598 -11 C620 -11 641 -9 664 0 L676 76 C665 70 651 67 641 67 C606 67 600 86 606 122 L606 122 Z " />
<glyph glyph-name="Udieresis" unicode="&#xdc;" horiz-adv-x="735" d="M341 789 C380 789 409 813 409 860 C409 893 386 918 350 918 C313 918 281 892 281 846 C281 812 306 789 341 789 L341 789 Z M572 789 C611 789 640 813 640 860 C640 893 617 918 581 918 C544 918 512 892 512 846 C512 812 537 789 572 789 L572 789 Z M606 122 L698 700 L605 700 L520 163 C474 114 412 64 332 64 C199 64 158 134 179 269 L247 700 L152 700 L84 269 C58 102 125 -16 313 -16 C404 -16 465 23 509 65 C512 22 534 -11 598 -11 C620 -11 641 -9 664 0 L676 76 C665 70 651 67 641 67 C606 67 600 86 606 122 L606 122 Z " />
<glyph glyph-name="Yacute" unicode="&#xdd;" horiz-adv-x="638" d="M547 875 L506 959 L275 824 L309 764 L547 875 Z M689 700 L584 700 L426 471 C384 410 351 365 331 336 C318 370 298 421 278 470 L187 700 L87 700 L272 254 L232 0 L325 0 L364 249 L689 700 Z " />
<glyph glyph-name="Thorn" unicode="&#xde;" horiz-adv-x="659" d="M417 587 L237 587 L255 700 L161 700 L50 0 L144 0 L162 116 L342 116 C519 116 633 206 633 398 C633 530 551 587 417 587 L417 587 Z M356 202 L176 202 L223 501 L403 501 C482 501 536 468 536 382 C536 256 460 202 356 202 L356 202 Z " />
<glyph glyph-name="germandbls" unicode="&#xdf;" horiz-adv-x="603" d="M396 366 C396 441 544 447 544 590 C544 676 480 737 363 737 C276 737 146 703 118 515 L36 0 L128 0 L210 515 C227 628 297 656 358 656 C416 656 453 633 453 583 C453 482 301 479 301 352 C301 234 465 240 465 147 C465 99 434 65 346 65 C290 65 266 75 235 88 L222 4 C256 -9 287 -15 340 -15 C497 -15 560 62 560 158 C560 290 396 304 396 366 L396 366 Z " />
<glyph glyph-name="agrave" unicode="&#xe0;" horiz-adv-x="615" d="M504 649 L301 820 L244 746 L458 591 L504 649 Z M523 64 C497 64 489 80 493 108 L559 525 L491 525 L478 494 C443 527 388 541 331 541 C155 541 39 402 39 212 C39 70 115 -15 232 -15 C295 -15 353 5 400 53 C406 13 431 -11 487 -11 C510 -11 531 -8 554 0 L566 73 C552 67 542 64 523 64 L523 64 Z M264 65 C177 65 132 123 132 220 C132 356 206 461 331 461 C382 461 420 446 450 416 L406 140 C361 87 305 65 264 65 L264 65 Z " />
<glyph glyph-name="aacute" unicode="&#xe1;" horiz-adv-x="615" d="M515 745 L461 820 L248 649 L291 590 L515 745 Z M523 64 C497 64 489 80 493 108 L559 525 L491 525 L478 494 C443 527 388 541 331 541 C155 541 39 402 39 212 C39 70 115 -15 232 -15 C295 -15 353 5 400 53 C406 13 431 -11 487 -11 C510 -11 531 -8 554 0 L566 73 C552 67 542 64 523 64 L523 64 Z M264 65 C177 65 132 123 132 220 C132 356 206 461 331 461 C382 461 420 446 450 416 L406 140 C361 87 305 65 264 65 L264 65 Z " />
<glyph glyph-name="acircumflex" unicode="&#xe2;" horiz-adv-x="615" d="M387 711 L491 595 L550 646 L398 826 L189 648 L230 592 L387 711 Z M523 64 C497 64 489 80 493 108 L559 525 L491 525 L478 494 C443 527 388 541 331 541 C155 541 39 402 39 212 C39 70 115 -15 232 -15 C295 -15 353 5 400 53 C406 13 431 -11 487 -11 C510 -11 531 -8 554 0 L566 73 C552 67 542 64 523 64 L523 64 Z M264 65 C177 65 132 123 132 220 C132 356 206 461 331 461 C382 461 420 446 450 416 L406 140 C361 87 305 65 264 65 L264 65 Z " />
<glyph glyph-name="atilde" unicode="&#xe3;" horiz-adv-x="615" d="M312 690 C351 690 370 642 440 642 C496 642 529 689 550 743 L487 770 C471 731 453 722 429 722 C390 722 368 769 302 769 C246 769 212 724 191 671 L255 641 C272 679 290 690 312 690 L312 690 Z M523 64 C497 64 489 80 493 108 L559 525 L491 525 L478 494 C443 527 388 541 331 541 C155 541 39 402 39 212 C39 70 115 -15 232 -15 C295 -15 353 5 400 53 C406 13 431 -11 487 -11 C510 -11 531 -8 554 0 L566 73 C552 67 542 64 523 64 L523 64 Z M264 65 C177 65 132 123 132 220 C132 356 206 461 331 461 C382 461 420 446 450 416 L406 140 C361 87 305 65 264 65 L264 65 Z " />
<glyph glyph-name="adieresis" unicode="&#xe4;" horiz-adv-x="615" d="M261 637 C302 637 332 664 332 712 C332 746 309 770 272 770 C234 770 201 742 201 695 C201 660 226 637 261 637 L261 637 Z M483 637 C524 637 554 664 554 712 C554 746 531 770 494 770 C456 770 423 742 423 695 C423 660 448 637 483 637 L483 637 Z M523 64 C497 64 489 80 493 108 L559 525 L491 525 L478 494 C443 527 388 541 331 541 C155 541 39 402 39 212 C39 70 115 -15 232 -15 C295 -15 353 5 400 53 C406 13 431 -11 487 -11 C510 -11 531 -8 554 0 L566 73 C552 67 542 64 523 64 L523 64 Z M264 65 C177 65 132 123 132 220 C132 356 206 461 331 461 C382 461 420 446 450 416 L406 140 C361 87 305 65 264 65 L264 65 Z " />
<glyph glyph-name="aring" unicode="&#xe5;" horiz-adv-x="615" d="M369 592 C452 592 500 644 500 722 C500 787 453 828 389 828 C305 828 259 775 259 699 C259 632 305 592 369 592 L369 592 Z M382 772 C412 773 434 754 434 719 C434 676 414 649 373 649 C344 649 323 667 323 703 C323 745 345 771 382 772 L382 772 Z M523 64 C497 64 489 80 493 108 L559 525 L491 525 L478 494 C443 527 388 541 331 541 C155 541 39 402 39 212 C39 70 115 -15 232 -15 C295 -15 353 5 400 53 C406 13 431 -11 487 -11 C510 -11 531 -8 554 0 L566 73 C552 67 542 64 523 64 L523 64 Z M264 65 C177 65 132 123 132 220 C132 356 206 461 331 461 C382 461 420 446 450 416 L406 140 C361 87 305 65 264 65 L264 65 Z " />
<glyph glyph-name="ae" unicode="&#xe6;" horiz-adv-x="880" d="M831 232 C836 249 846 285 846 341 C846 472 777 541 652 541 C572 541 508 508 462 457 C433 513 372 541 283 541 C225 541 168 528 118 508 L105 422 C153 444 211 457 275 457 C351 457 388 429 388 366 C388 355 387 344 385 332 L377 279 C331 295 283 303 233 303 C99 303 14 238 14 131 C14 30 79 -15 176 -15 C261 -15 332 6 402 85 C438 22 504 -15 601 -15 C670 -15 727 -3 771 16 L784 101 C722 77 682 67 613 67 C519 67 463 125 463 226 L463 232 L831 232 Z M638 461 C714 461 752 424 752 336 C752 328 752 320 750 308 L472 308 C495 404 560 461 638 461 L638 461 Z M204 61 C144 61 108 85 108 140 C108 199 156 230 238 230 C280 230 331 220 372 204 C373 186 374 169 378 152 C319 80 253 61 204 61 L204 61 Z " />
<glyph glyph-name="ccedilla" unicode="&#xe7;" horiz-adv-x="477" d="M344 461 C396 461 433 451 464 436 L477 518 C445 533 403 541 352 541 C153 541 39 404 39 223 C39 99 96 13 214 -9 L173 -96 L210 -96 C248 -96 268 -109 268 -136 C268 -168 245 -181 210 -181 C186 -181 155 -174 131 -158 L121 -223 C147 -237 176 -243 214 -243 C285 -243 351 -207 351 -127 C351 -76 317 -48 263 -46 L277 -15 C327 -15 369 -3 399 13 L412 95 C372 74 328 65 295 65 C184 65 132 133 132 231 C132 364 211 461 344 461 L344 461 Z " />
<glyph glyph-name="egrave" unicode="&#xe8;" horiz-adv-x="532" d="M462 649 L259 820 L202 746 L416 591 L462 649 Z M512 388 C512 483 443 541 332 541 C150 541 38 393 38 219 C38 80 116 -16 276 -16 C327 -16 378 -7 430 16 L444 101 C386 77 340 64 289 64 C178 64 134 132 132 228 C168 216 218 207 283 207 C448 207 512 283 512 388 L512 388 Z M318 461 C368 461 419 444 419 379 C419 321 379 282 295 282 C240 282 193 288 141 305 C163 391 226 461 318 461 L318 461 Z " />
<glyph glyph-name="eacute" unicode="&#xe9;" horiz-adv-x="532" d="M473 745 L419 820 L206 649 L249 590 L473 745 Z M512 388 C512 483 443 541 332 541 C150 541 38 393 38 219 C38 80 116 -16 276 -16 C327 -16 378 -7 430 16 L444 101 C386 77 340 64 289 64 C178 64 134 132 132 228 C168 216 218 207 283 207 C448 207 512 283 512 388 L512 388 Z M318 461 C368 461 419 444 419 379 C419 321 379 282 295 282 C240 282 193 288 141 305 C163 391 226 461 318 461 L318 461 Z " />
<glyph glyph-name="ecircumflex" unicode="&#xea;" horiz-adv-x="532" d="M345 711 L449 595 L508 646 L356 826 L147 648 L188 592 L345 711 Z M512 388 C512 483 443 541 332 541 C150 541 38 393 38 219 C38 80 116 -16 276 -16 C327 -16 378 -7 430 16 L444 101 C386 77 340 64 289 64 C178 64 134 132 132 228 C168 216 218 207 283 207 C448 207 512 283 512 388 L512 388 Z M318 461 C368 461 419 444 419 379 C419 321 379 282 295 282 C240 282 193 288 141 305 C163 391 226 461 318 461 L318 461 Z " />
<glyph glyph-name="edieresis" unicode="&#xeb;" horiz-adv-x="532" d="M219 637 C260 637 290 664 290 712 C290 746 267 770 230 770 C192 770 159 742 159 695 C159 660 184 637 219 637 L219 637 Z M441 637 C482 637 512 664 512 712 C512 746 489 770 452 770 C414 770 381 742 381 695 C381 660 406 637 441 637 L441 637 Z M332 541 C150 541 38 393 38 219 C38 80 116 -16 276 -16 C327 -16 378 -7 430 16 L444 101 C386 77 340 64 289 64 C178 64 134 132 132 228 C168 216 218 207 283 207 C448 207 512 283 512 388 C512 483 443 541 332 541 L332 541 Z M295 282 C240 282 193 288 141 305 C163 391 226 461 318 461 C368 461 419 444 419 379 C419 321 379 282 295 282 L295 282 Z " />
<glyph glyph-name="igrave" unicode="&#xec;" horiz-adv-x="275" d="M278 591 L324 649 L121 820 L64 746 L278 591 Z M144 -11 C165 -11 190 -7 210 0 L222 73 C209 67 194 64 182 64 C155 64 144 77 149 108 L215 525 L123 525 L57 106 C48 47 59 -11 144 -11 L144 -11 Z " />
<glyph glyph-name="iacute" unicode="&#xed;" horiz-adv-x="275" d="M111 590 L335 745 L281 820 L68 649 L111 590 Z M144 -11 C165 -11 190 -7 210 0 L222 73 C209 67 194 64 182 64 C155 64 144 77 149 108 L215 525 L123 525 L57 106 C48 47 59 -11 144 -11 L144 -11 Z " />
<glyph glyph-name="icircumflex" unicode="&#xee;" horiz-adv-x="275" d="M50 592 L207 711 L311 595 L370 646 L218 826 L9 648 L50 592 Z M144 -11 C165 -11 190 -7 210 0 L222 73 C209 67 194 64 182 64 C155 64 144 77 149 108 L215 525 L123 525 L57 106 C48 47 59 -11 144 -11 L144 -11 Z " />
<glyph glyph-name="idieresis" unicode="&#xef;" horiz-adv-x="275" d="M81 637 C122 637 152 664 152 712 C152 746 129 770 92 770 C54 770 21 742 21 695 C21 660 46 637 81 637 L81 637 Z M303 637 C344 637 374 664 374 712 C374 746 351 770 314 770 C276 770 243 742 243 695 C243 660 268 637 303 637 L303 637 Z M144 -11 C165 -11 190 -7 210 0 L222 73 C209 67 194 64 182 64 C155 64 144 77 149 108 L215 525 L123 525 L57 106 C48 47 59 -11 144 -11 L144 -11 Z " />
<glyph glyph-name="eth" unicode="&#xf0;" horiz-adv-x="609" d="M607 657 L583 721 L498 679 C486 704 472 728 457 750 L349 750 C378 717 402 680 420 641 L334 599 L357 533 L445 577 C460 531 469 482 474 433 C449 468 400 505 306 505 C156 505 37 385 37 222 C37 73 129 -15 267 -15 C436 -15 562 96 562 371 C562 451 550 537 523 616 L607 657 Z M289 65 C180 65 132 131 132 223 C132 344 205 425 312 425 C401 425 458 370 458 276 C458 150 389 65 289 65 L289 65 Z " />
<glyph glyph-name="ntilde" unicode="&#xf1;" horiz-adv-x="616" d="M302 690 C341 690 360 642 430 642 C486 642 519 689 540 743 L477 770 C461 731 443 722 419 722 C380 722 358 769 292 769 C236 769 202 724 181 671 L245 641 C262 679 280 690 302 690 L302 690 Z M532 64 C508 64 496 77 501 107 L535 324 C556 457 501 541 370 541 C306 541 244 517 192 465 L181 525 L119 525 L36 0 L128 0 L189 384 C237 436 293 461 345 461 C422 461 458 414 442 316 L410 114 C398 38 416 -11 496 -11 C519 -11 543 -7 562 0 L574 73 C559 67 550 64 532 64 L532 64 Z " />
<glyph glyph-name="ograve" unicode="&#xf2;" horiz-adv-x="598" d="M449 591 L495 649 L292 820 L235 746 L449 591 Z M269 -16 C444 -16 565 121 558 324 C554 448 471 541 330 541 C156 541 34 406 41 203 C45 78 128 -16 269 -16 L269 -16 Z M282 64 C189 64 134 124 134 227 C134 368 215 461 316 461 C410 461 465 401 465 297 C465 158 387 64 282 64 L282 64 Z " />
<glyph glyph-name="oacute" unicode="&#xf3;" horiz-adv-x="598" d="M282 590 L506 745 L452 820 L239 649 L282 590 Z M269 -16 C444 -16 565 121 558 324 C554 448 471 541 330 541 C156 541 34 406 41 203 C45 78 128 -16 269 -16 L269 -16 Z M282 64 C189 64 134 124 134 227 C134 368 215 461 316 461 C410 461 465 401 465 297 C465 158 387 64 282 64 L282 64 Z " />
<glyph glyph-name="ocircumflex" unicode="&#xf4;" horiz-adv-x="598" d="M221 592 L378 711 L482 595 L541 646 L389 826 L180 648 L221 592 Z M269 -16 C444 -16 565 121 558 324 C554 448 471 541 330 541 C156 541 34 406 41 203 C45 78 128 -16 269 -16 L269 -16 Z M282 64 C189 64 134 124 134 227 C134 368 215 461 316 461 C410 461 465 401 465 297 C465 158 387 64 282 64 L282 64 Z " />
<glyph glyph-name="otilde" unicode="&#xf5;" horiz-adv-x="598" d="M478 770 C462 731 444 722 420 722 C381 722 359 769 293 769 C237 769 203 724 182 671 L246 641 C263 679 281 690 303 690 C342 690 361 642 431 642 C487 642 520 689 541 743 L478 770 Z M269 -16 C444 -16 565 121 558 324 C554 448 471 541 330 541 C156 541 34 406 41 203 C45 78 128 -16 269 -16 L269 -16 Z M282 64 C189 64 134 124 134 227 C134 368 215 461 316 461 C410 461 465 401 465 297 C465 158 387 64 282 64 L282 64 Z " />
<glyph glyph-name="odieresis" unicode="&#xf6;" horiz-adv-x="598" d="M252 637 C293 637 323 664 323 712 C323 746 300 770 263 770 C225 770 192 742 192 695 C192 660 217 637 252 637 L252 637 Z M474 637 C515 637 545 664 545 712 C545 746 522 770 485 770 C447 770 414 742 414 695 C414 660 439 637 474 637 L474 637 Z M269 -16 C444 -16 565 121 558 324 C554 448 471 541 330 541 C156 541 34 406 41 203 C45 78 128 -16 269 -16 L269 -16 Z M282 64 C189 64 134 124 134 227 C134 368 215 461 316 461 C410 461 465 401 465 297 C465 158 387 64 282 64 L282 64 Z " />
<glyph glyph-name="divide" unicode="&#xf7;" horiz-adv-x="423" d="M237 417 C283 417 315 446 315 495 C315 529 293 550 258 550 C214 550 180 520 180 472 C180 437 203 417 237 417 L237 417 Z M58 334 L45 253 L376 253 L389 334 L58 334 Z M178 47 C224 47 256 77 256 125 C256 160 235 180 200 180 C155 180 122 151 122 102 C122 68 144 47 178 47 L178 47 Z " />
<glyph glyph-name="oslash" unicode="&#xf8;" horiz-adv-x="610" d="M535 436 L609 506 L566 552 L496 486 C457 520 403 541 337 541 C163 541 41 406 48 203 C49 158 61 117 82 83 L7 12 L50 -35 L123 35 C161 3 213 -16 276 -16 C451 -16 572 121 565 324 C564 366 553 404 535 436 L535 436 Z M323 461 C369 461 406 446 432 419 L154 149 C146 171 141 197 141 227 C141 368 222 461 323 461 L323 461 Z M289 64 C246 64 211 77 186 101 L461 370 C468 349 472 324 472 297 C472 158 394 64 289 64 L289 64 Z " />
<glyph glyph-name="ugrave" unicode="&#xf9;" horiz-adv-x="607" d="M487 649 L284 820 L227 746 L441 591 L487 649 Z M516 64 C489 64 480 80 485 110 L551 525 L459 525 L398 141 C351 86 297 65 250 65 C173 65 138 104 155 205 L206 525 L114 525 L63 200 C41 59 101 -15 221 -15 C298 -15 348 10 392 53 C398 13 424 -11 482 -11 C499 -11 521 -9 546 0 L558 73 C543 67 532 64 516 64 L516 64 Z " />
<glyph glyph-name="uacute" unicode="&#xfa;" horiz-adv-x="607" d="M498 745 L444 820 L231 649 L274 590 L498 745 Z M516 64 C489 64 480 80 485 110 L551 525 L459 525 L398 141 C351 86 297 65 250 65 C173 65 138 104 155 205 L206 525 L114 525 L63 200 C41 59 101 -15 221 -15 C298 -15 348 10 392 53 C398 13 424 -11 482 -11 C499 -11 521 -9 546 0 L558 73 C543 67 532 64 516 64 L516 64 Z " />
<glyph glyph-name="ucircumflex" unicode="&#xfb;" horiz-adv-x="607" d="M370 711 L474 595 L533 646 L381 826 L172 648 L213 592 L370 711 Z M516 64 C489 64 480 80 485 110 L551 525 L459 525 L398 141 C351 86 297 65 250 65 C173 65 138 104 155 205 L206 525 L114 525 L63 200 C41 59 101 -15 221 -15 C298 -15 348 10 392 53 C398 13 424 -11 482 -11 C499 -11 521 -9 546 0 L558 73 C543 67 532 64 516 64 L516 64 Z " />
<glyph glyph-name="udieresis" unicode="&#xfc;" horiz-adv-x="607" d="M244 637 C285 637 315 664 315 712 C315 746 292 770 255 770 C217 770 184 742 184 695 C184 660 209 637 244 637 L244 637 Z M466 637 C507 637 537 664 537 712 C537 746 514 770 477 770 C439 770 406 742 406 695 C406 660 431 637 466 637 L466 637 Z M516 64 C489 64 480 80 485 110 L551 525 L459 525 L398 141 C351 86 297 65 250 65 C173 65 138 104 155 205 L206 525 L114 525 L63 200 C41 59 101 -15 221 -15 C298 -15 348 10 392 53 C398 13 424 -11 482 -11 C499 -11 521 -9 546 0 L558 73 C543 67 532 64 516 64 L516 64 Z " />
<glyph glyph-name="yacute" unicode="&#xfd;" horiz-adv-x="557" d="M486 745 L432 820 L219 649 L262 590 L486 745 Z M474 525 C424 365 345 220 259 94 L163 525 L67 525 L193 4 C143 -61 93 -120 47 -170 L150 -170 C300 -10 476 245 568 525 L474 525 Z " />
<glyph glyph-name="thorn" unicode="&#xfe;" horiz-adv-x="595" d="M362 541 C301 541 244 516 203 475 L247 750 L155 750 L6 -190 L98 -190 L128 -1 C170 -11 214 -15 253 -15 C458 -15 556 136 556 324 C556 447 490 541 362 541 L362 541 Z M258 65 C223 65 180 69 141 82 L189 385 C220 423 273 461 329 461 C417 461 463 406 463 316 C463 176 398 65 258 65 L258 65 Z " />
<glyph glyph-name="ydieresis" unicode="&#xff;" horiz-adv-x="557" d="M232 637 C273 637 303 664 303 712 C303 746 280 770 243 770 C205 770 172 742 172 695 C172 660 197 637 232 637 L232 637 Z M454 637 C495 637 525 664 525 712 C525 746 502 770 465 770 C427 770 394 742 394 695 C394 660 419 637 454 637 L454 637 Z M474 525 C424 365 345 220 259 94 L163 525 L67 525 L193 4 C143 -61 93 -120 47 -170 L150 -170 C300 -10 476 245 568 525 L474 525 Z " />
<glyph glyph-name="Amacron" unicode="&#x100;" horiz-adv-x="662" d="M577 886 L280 886 L268 811 L565 811 L577 886 Z M514 0 L610 0 L449 700 L360 700 L-22 0 L80 0 L180 190 L474 190 L514 0 Z M222 270 L389 589 L457 270 L222 270 Z " />
<glyph glyph-name="amacron" unicode="&#x101;" horiz-adv-x="615" d="M531 735 L234 735 L222 658 L519 658 L531 735 Z M523 64 C497 64 489 80 493 108 L559 525 L491 525 L478 494 C443 527 388 541 331 541 C155 541 39 402 39 212 C39 70 115 -15 232 -15 C295 -15 353 5 400 53 C406 13 431 -11 487 -11 C510 -11 531 -8 554 0 L566 73 C552 67 542 64 523 64 L523 64 Z M264 65 C177 65 132 123 132 220 C132 356 206 461 331 461 C382 461 420 446 450 416 L406 140 C361 87 305 65 264 65 L264 65 Z " />
<glyph glyph-name="Abreve" unicode="&#x102;" horiz-adv-x="662" d="M418 777 C507 777 574 822 593 936 L525 940 C515 881 483 844 426 844 C369 844 345 881 354 940 L281 936 C264 821 327 777 418 777 L418 777 Z M514 0 L610 0 L449 700 L360 700 L-22 0 L80 0 L180 190 L474 190 L514 0 Z M222 270 L389 589 L457 270 L222 270 Z " />
<glyph glyph-name="abreve" unicode="&#x103;" horiz-adv-x="615" d="M363 606 C475 606 535 670 556 790 L489 795 C479 731 442 686 375 686 C307 686 288 731 296 795 L226 790 C209 670 257 606 363 606 L363 606 Z M523 64 C497 64 489 80 493 108 L559 525 L491 525 L478 494 C443 527 388 541 331 541 C155 541 39 402 39 212 C39 70 115 -15 232 -15 C295 -15 353 5 400 53 C406 13 431 -11 487 -11 C510 -11 531 -8 554 0 L566 73 C552 67 542 64 523 64 L523 64 Z M264 65 C177 65 132 123 132 220 C132 356 206 461 331 461 C382 461 420 446 450 416 L406 140 C361 87 305 65 264 65 L264 65 Z " />
<glyph glyph-name="Aogonek" unicode="&#x104;" horiz-adv-x="662" d="M606 0 L610 0 L449 700 L360 700 L-22 0 L80 0 L180 190 L474 190 L514 0 L528 0 C465 -35 414 -87 414 -159 C414 -203 440 -242 502 -242 C528 -242 553 -238 574 -228 L584 -163 C568 -170 554 -172 541 -172 C515 -172 501 -155 501 -129 C501 -78 542 -38 606 0 L606 0 Z M222 270 L389 589 L457 270 L222 270 Z " />
<glyph glyph-name="aogonek" unicode="&#x105;" horiz-adv-x="615" d="M554 0 L566 73 C552 67 542 64 523 64 C497 64 489 80 493 108 L559 525 L491 525 L478 494 C443 527 388 541 331 541 C155 541 39 402 39 212 C39 70 115 -15 232 -15 C295 -15 353 5 400 53 C405 20 423 -2 461 -9 C405 -44 362 -93 362 -159 C362 -203 388 -242 450 -242 C476 -242 501 -238 522 -228 L532 -163 C516 -170 502 -172 489 -172 C463 -172 449 -155 449 -129 C449 -78 490 -38 554 0 L554 0 Z M264 65 C177 65 132 123 132 220 C132 356 206 461 331 461 C382 461 420 446 450 416 L406 140 C361 87 305 65 264 65 L264 65 Z " />
<glyph glyph-name="Cacute" unicode="&#x106;" horiz-adv-x="611" d="M366 764 L604 875 L563 959 L332 824 L366 764 Z M358 -16 C421 -16 484 -6 537 22 L551 111 C487 77 433 66 367 66 C217 66 151 169 151 297 C151 503 259 638 448 638 C520 638 570 628 623 600 L637 683 C592 706 527 720 449 720 C209 720 55 556 55 285 C55 99 169 -16 358 -16 L358 -16 Z " />
<glyph glyph-name="cacute" unicode="&#x107;" horiz-adv-x="477" d="M251 590 L475 745 L421 820 L208 649 L251 590 Z M277 -15 C327 -15 369 -3 399 13 L412 95 C372 74 328 65 295 65 C184 65 132 133 132 231 C132 364 211 461 344 461 C396 461 433 451 464 436 L477 518 C445 533 403 541 352 541 C153 541 39 404 39 223 C39 79 116 -15 277 -15 L277 -15 Z " />
<glyph glyph-name="Cdotaccent" unicode="&#x10a;" horiz-adv-x="611" d="M462 791 C504 791 536 819 536 861 C536 895 512 920 475 920 C433 920 402 891 402 849 C402 815 426 791 462 791 L462 791 Z M358 -16 C421 -16 484 -6 537 22 L551 111 C487 77 433 66 367 66 C217 66 151 169 151 297 C151 503 259 638 448 638 C520 638 570 628 623 600 L637 683 C592 706 527 720 449 720 C209 720 55 556 55 285 C55 99 169 -16 358 -16 L358 -16 Z " />
<glyph glyph-name="cdotaccent" unicode="&#x10b;" horiz-adv-x="477" d="M333 637 C374 637 404 664 404 712 C404 746 381 770 344 770 C306 770 273 742 273 695 C273 660 298 637 333 637 L333 637 Z M277 -15 C327 -15 369 -3 399 13 L412 95 C372 74 328 65 295 65 C184 65 132 133 132 231 C132 364 211 461 344 461 C396 461 433 451 464 436 L477 518 C445 533 403 541 352 541 C153 541 39 404 39 223 C39 79 116 -15 277 -15 L277 -15 Z " />
<glyph glyph-name="Ccaron" unicode="&#x10c;" horiz-adv-x="611" d="M622 962 L469 861 L349 962 L304 912 L454 764 L652 912 L622 962 Z M358 -16 C421 -16 484 -6 537 22 L551 111 C487 77 433 66 367 66 C217 66 151 169 151 297 C151 503 259 638 448 638 C520 638 570 628 623 600 L637 683 C592 706 527 720 449 720 C209 720 55 556 55 285 C55 99 169 -16 358 -16 L358 -16 Z " />
<glyph glyph-name="ccaron" unicode="&#x10d;" horiz-adv-x="477" d="M321 596 L530 774 L489 830 L332 711 L228 827 L169 776 L321 596 Z M277 -15 C327 -15 369 -3 399 13 L412 95 C372 74 328 65 295 65 C184 65 132 133 132 231 C132 364 211 461 344 461 C396 461 433 451 464 436 L477 518 C445 533 403 541 352 541 C153 541 39 404 39 223 C39 79 116 -15 277 -15 L277 -15 Z " />
<glyph glyph-name="Dcaron" unicode="&#x10e;" horiz-adv-x="715" d="M624 912 L594 962 L441 861 L321 962 L276 912 L426 764 L624 912 Z M360 700 L161 700 L50 0 L281 0 C537 0 687 156 687 405 C687 594 566 700 360 700 L360 700 Z M294 86 L158 86 L241 614 L355 614 C504 614 591 547 591 403 C591 202 479 86 294 86 L294 86 Z " />
<glyph glyph-name="dcaron" unicode="&#x10f;" horiz-adv-x="669" d="M654 754 L626 512 L695 512 L743 754 L654 754 Z M594 750 L502 750 L466 523 C426 537 383 541 338 541 C147 541 38 403 38 202 C38 71 110 -15 233 -15 C299 -15 357 14 398 59 C403 15 428 -11 486 -11 C509 -11 530 -8 553 0 L565 73 C550 67 539 64 523 64 C499 64 487 77 492 109 L594 750 Z M260 65 C173 65 131 124 131 214 C131 363 205 461 338 461 C379 461 421 456 453 442 L406 143 C360 90 308 65 260 65 L260 65 Z " />
<glyph glyph-name="Dcroat" unicode="&#x110;" horiz-adv-x="720" d="M365 700 L166 700 L118 398 L60 398 L46 310 L104 310 L55 0 L286 0 C542 0 692 156 692 405 C692 594 571 700 365 700 L365 700 Z M299 86 L163 86 L198 310 L349 310 L363 398 L212 398 L246 614 L360 614 C509 614 596 547 596 403 C596 202 484 86 299 86 L299 86 Z " />
<glyph glyph-name="dcroat" unicode="&#x111;" horiz-adv-x="616" d="M569 595 L641 595 L655 683 L583 683 L594 750 L502 750 L491 683 L352 683 L338 595 L477 595 L466 523 C426 537 383 541 338 541 C147 541 38 403 38 202 C38 71 110 -15 233 -15 C299 -15 357 14 398 59 C403 15 428 -11 486 -11 C509 -11 530 -8 553 0 L565 73 C550 67 539 64 523 64 C499 64 487 77 492 109 L569 595 Z M260 65 C173 65 131 124 131 214 C131 363 205 461 338 461 C379 461 421 456 453 442 L406 143 C360 90 308 65 260 65 L260 65 Z " />
<glyph glyph-name="Emacron" unicode="&#x112;" horiz-adv-x="575" d="M560 886 L263 886 L251 811 L548 811 L560 886 Z M577 614 L591 700 L161 700 L50 0 L486 0 L500 86 L158 86 L194 311 L493 311 L507 397 L207 397 L241 614 L577 614 Z " />
<glyph glyph-name="emacron" unicode="&#x113;" horiz-adv-x="532" d="M489 735 L192 735 L180 658 L477 658 L489 735 Z M512 388 C512 483 443 541 332 541 C150 541 38 393 38 219 C38 80 116 -16 276 -16 C327 -16 378 -7 430 16 L444 101 C386 77 340 64 289 64 C178 64 134 132 132 228 C168 216 218 207 283 207 C448 207 512 283 512 388 L512 388 Z M318 461 C368 461 419 444 419 379 C419 321 379 282 295 282 C240 282 193 288 141 305 C163 391 226 461 318 461 L318 461 Z " />
<glyph glyph-name="Edotaccent" unicode="&#x116;" horiz-adv-x="575" d="M400 791 C442 791 474 819 474 861 C474 895 450 920 413 920 C371 920 340 891 340 849 C340 815 364 791 400 791 L400 791 Z M577 614 L591 700 L161 700 L50 0 L486 0 L500 86 L158 86 L194 311 L493 311 L507 397 L207 397 L241 614 L577 614 Z " />
<glyph glyph-name="edotaccent" unicode="&#x117;" horiz-adv-x="532" d="M331 637 C372 637 402 664 402 712 C402 746 379 770 342 770 C304 770 271 742 271 695 C271 660 296 637 331 637 L331 637 Z M512 388 C512 483 443 541 332 541 C150 541 38 393 38 219 C38 80 116 -16 276 -16 C327 -16 378 -7 430 16 L444 101 C386 77 340 64 289 64 C178 64 134 132 132 228 C168 216 218 207 283 207 C448 207 512 283 512 388 L512 388 Z M318 461 C368 461 419 444 419 379 C419 321 379 282 295 282 C240 282 193 288 141 305 C163 391 226 461 318 461 L318 461 Z " />
<glyph glyph-name="Eogonek" unicode="&#x118;" horiz-adv-x="575" d="M577 614 L591 700 L161 700 L50 0 L408 0 C345 -35 294 -87 294 -159 C294 -203 320 -242 382 -242 C408 -242 433 -238 454 -228 L464 -163 C448 -170 434 -172 421 -172 C395 -172 381 -155 381 -129 C381 -78 422 -38 486 0 L500 86 L158 86 L194 311 L493 311 L507 397 L207 397 L241 614 L577 614 Z " />
<glyph glyph-name="eogonek" unicode="&#x119;" horiz-adv-x="532" d="M512 388 C512 483 443 541 332 541 C150 541 38 393 38 219 C38 80 116 -16 276 -16 C286 -16 296 -16 306 -15 C266 -48 238 -90 238 -143 C238 -187 264 -226 326 -226 C352 -226 377 -222 398 -212 L408 -147 C392 -154 378 -156 365 -156 C339 -156 325 -139 325 -113 C325 -62 366 -22 430 16 L444 101 C386 77 340 64 289 64 C178 64 134 132 132 228 C168 216 218 207 283 207 C448 207 512 283 512 388 L512 388 Z M318 461 C368 461 419 444 419 379 C419 321 379 282 295 282 C240 282 193 288 141 305 C163 391 226 461 318 461 L318 461 Z " />
<glyph glyph-name="Ecaron" unicode="&#x11a;" horiz-adv-x="575" d="M590 912 L560 962 L407 861 L287 962 L242 912 L392 764 L590 912 Z M577 614 L591 700 L161 700 L50 0 L486 0 L500 86 L158 86 L194 311 L493 311 L507 397 L207 397 L241 614 L577 614 Z " />
<glyph glyph-name="ecaron" unicode="&#x11b;" horiz-adv-x="532" d="M528 774 L487 830 L330 711 L226 827 L167 776 L319 596 L528 774 Z M332 541 C150 541 38 393 38 219 C38 80 116 -16 276 -16 C327 -16 378 -7 430 16 L444 101 C386 77 340 64 289 64 C178 64 134 132 132 228 C168 216 218 207 283 207 C448 207 512 283 512 388 C512 483 443 541 332 541 L332 541 Z M295 282 C240 282 193 288 141 305 C163 391 226 461 318 461 C368 461 419 444 419 379 C419 321 379 282 295 282 L295 282 Z " />
<glyph glyph-name="Gbreve" unicode="&#x11e;" horiz-adv-x="679" d="M467 777 C556 777 623 822 642 936 L574 940 C564 881 532 844 475 844 C418 844 394 881 403 940 L330 936 C313 821 376 777 467 777 L467 777 Z M459 638 C530 638 591 622 645 598 L659 684 C606 706 553 720 461 720 C217 720 55 539 55 291 C55 113 151 -16 367 -16 C442 -16 530 5 588 33 L637 341 L544 341 L504 86 C464 72 422 66 370 66 C223 66 151 159 151 301 C151 504 269 638 459 638 L459 638 Z " />
<glyph glyph-name="gbreve" unicode="&#x11f;" horiz-adv-x="596" d="M353 606 C465 606 525 670 546 790 L479 795 C469 731 432 686 365 686 C297 686 278 731 286 795 L216 790 C199 670 247 606 353 606 L353 606 Z M494 525 L481 494 C446 524 398 541 333 541 C155 541 43 420 43 234 C43 106 118 27 251 27 C303 27 354 41 401 81 L393 30 C378 -69 322 -121 223 -121 C154 -121 92 -113 45 -91 L30 -180 C74 -199 134 -206 197 -206 C364 -206 459 -123 483 28 L562 525 L494 525 Z M262 107 C180 107 137 159 137 249 C137 378 204 461 333 461 C379 461 422 446 453 416 L415 173 C361 119 310 107 262 107 L262 107 Z " />
<glyph glyph-name="Gdotaccent" unicode="&#x120;" horiz-adv-x="679" d="M466 791 C508 791 540 819 540 861 C540 895 516 920 479 920 C437 920 406 891 406 849 C406 815 430 791 466 791 L466 791 Z M459 638 C530 638 591 622 645 598 L659 684 C606 706 553 720 461 720 C217 720 55 539 55 291 C55 113 151 -16 367 -16 C442 -16 530 5 588 33 L637 341 L544 341 L504 86 C464 72 422 66 370 66 C223 66 151 159 151 301 C151 504 269 638 459 638 L459 638 Z " />
<glyph glyph-name="gdotaccent" unicode="&#x121;" horiz-adv-x="596" d="M363 637 C404 637 434 664 434 712 C434 746 411 770 374 770 C336 770 303 742 303 695 C303 660 328 637 363 637 L363 637 Z M494 525 L481 494 C446 524 398 541 333 541 C155 541 43 420 43 234 C43 106 118 27 251 27 C303 27 354 41 401 81 L393 30 C378 -69 322 -121 223 -121 C154 -121 92 -113 45 -91 L30 -180 C74 -199 134 -206 197 -206 C364 -206 459 -123 483 28 L562 525 L494 525 Z M262 107 C180 107 137 159 137 249 C137 378 204 461 333 461 C379 461 422 446 453 416 L415 173 C361 119 310 107 262 107 L262 107 Z " />
<glyph glyph-name="uni0122" unicode="&#x122;" horiz-adv-x="679" d="M459 638 C530 638 591 622 645 598 L659 684 C606 706 553 720 461 720 C217 720 55 539 55 291 C55 113 151 -16 367 -16 C442 -16 530 5 588 33 L637 341 L544 341 L504 86 C464 72 422 66 370 66 C223 66 151 159 151 301 C151 504 269 638 459 638 L459 638 Z M355 -39 C312 -39 283 -68 283 -111 C283 -141 304 -163 335 -163 L339 -163 C336 -185 317 -217 282 -252 L346 -252 C399 -204 417 -147 417 -106 C417 -62 392 -39 355 -39 L355 -39 Z " />
<glyph glyph-name="uni0123" unicode="&#x123;" horiz-adv-x="596" d="M363 588 C406 588 432 617 432 659 C432 690 413 711 380 711 L376 711 C379 733 398 765 433 800 L370 800 C316 754 298 701 298 659 C298 611 322 588 363 588 L363 588 Z M494 525 L481 494 C446 524 398 541 333 541 C155 541 43 420 43 234 C43 106 118 27 251 27 C303 27 354 41 401 81 L393 30 C378 -69 322 -121 223 -121 C154 -121 92 -113 45 -91 L30 -180 C74 -199 134 -206 197 -206 C364 -206 459 -123 483 28 L562 525 L494 525 Z M262 107 C180 107 137 159 137 249 C137 378 204 461 333 461 C379 461 422 446 453 416 L415 173 C361 119 310 107 262 107 L262 107 Z " />
<glyph glyph-name="Hbar" unicode="&#x126;" horiz-adv-x="754" d="M777 586 L705 586 L723 700 L629 700 L611 586 L246 586 L264 700 L170 700 L152 586 L81 586 L69 514 L141 514 L59 0 L153 0 L202 311 L567 311 L518 0 L612 0 L694 514 L765 514 L777 586 Z M581 397 L216 397 L235 514 L600 514 L581 397 Z " />
<glyph glyph-name="hbar" unicode="&#x127;" horiz-adv-x="621" d="M536 64 C510 64 501 80 506 109 L540 324 C560 448 511 541 372 541 C306 541 251 519 203 476 L221 595 L344 595 L358 683 L235 683 L246 750 L154 750 L143 683 L55 683 L41 595 L129 595 L35 0 L127 0 L188 385 C244 441 296 461 349 461 C428 461 461 409 448 325 L415 114 C403 38 419 -11 501 -11 C515 -11 543 -9 567 0 L579 73 C565 66 549 64 536 64 L536 64 Z " />
<glyph glyph-name="Itilde" unicode="&#x128;" horiz-adv-x="276" d="M345 929 C333 904 318 886 294 886 C251 886 228 928 169 928 C119 928 77 890 53 830 L119 803 C131 827 145 846 172 846 C212 846 236 804 296 804 C347 804 386 843 412 906 L345 929 Z M161 700 L50 0 L144 0 L255 700 L161 700 Z " />
<glyph glyph-name="itilde" unicode="&#x129;" horiz-adv-x="275" d="M307 770 C291 731 273 722 249 722 C210 722 188 769 122 769 C66 769 32 724 11 671 L75 641 C92 679 110 690 132 690 C171 690 190 642 260 642 C316 642 349 689 370 743 L307 770 Z M144 -11 C165 -11 190 -7 210 0 L222 73 C209 67 194 64 182 64 C155 64 144 77 149 108 L215 525 L123 525 L57 106 C48 47 59 -11 144 -11 L144 -11 Z " />
<glyph glyph-name="Imacron" unicode="&#x12a;" horiz-adv-x="276" d="M75 811 L372 811 L384 886 L87 886 L75 811 Z M161 700 L50 0 L144 0 L255 700 L161 700 Z " />
<glyph glyph-name="imacron" unicode="&#x12b;" horiz-adv-x="275" d="M351 735 L54 735 L42 658 L339 658 L351 735 Z M144 -11 C165 -11 190 -7 210 0 L222 73 C209 67 194 64 182 64 C155 64 144 77 149 108 L215 525 L123 525 L57 106 C48 47 59 -11 144 -11 L144 -11 Z " />
<glyph glyph-name="Iogonek" unicode="&#x12e;" horiz-adv-x="276" d="M144 0 L255 700 L161 700 L50 0 L66 0 C3 -35 -48 -87 -48 -159 C-48 -203 -22 -242 40 -242 C66 -242 91 -238 112 -228 L122 -163 C106 -170 92 -172 79 -172 C53 -172 39 -155 39 -129 C39 -78 80 -38 144 0 L144 0 Z " />
<glyph glyph-name="iogonek" unicode="&#x12f;" horiz-adv-x="275" d="M204 770 C166 770 133 742 133 695 C133 660 158 637 193 637 C234 637 264 664 264 712 C264 746 241 770 204 770 L204 770 Z M149 108 L215 525 L123 525 L57 106 C49 54 57 2 117 -9 C61 -43 18 -93 18 -159 C18 -203 44 -242 106 -242 C132 -242 157 -238 178 -228 L188 -163 C172 -170 158 -172 145 -172 C119 -172 105 -155 105 -129 C105 -78 146 -38 210 0 L222 73 C209 67 194 64 182 64 C155 64 144 77 149 108 L149 108 Z " />
<glyph glyph-name="Idotaccent" unicode="&#x130;" horiz-adv-x="276" d="M224 791 C266 791 298 819 298 861 C298 895 274 920 237 920 C195 920 164 891 164 849 C164 815 188 791 224 791 L224 791 Z M161 700 L50 0 L144 0 L255 700 L161 700 Z " />
<glyph glyph-name="dotlessi" unicode="&#x131;" horiz-adv-x="275" d="M144 -11 C165 -11 190 -7 210 0 L222 73 C209 67 194 64 182 64 C155 64 144 77 149 108 L215 525 L123 525 L57 106 C48 47 59 -11 144 -11 L144 -11 Z " />
<glyph glyph-name="IJ" unicode="&#x132;" horiz-adv-x="790" d="M50 0 L144 0 L255 700 L161 700 L50 0 Z M775 700 L408 700 L394 614 L667 614 L606 227 C588 112 544 65 426 65 C382 65 327 77 287 100 L272 17 C317 -8 378 -16 431 -16 C597 -16 674 58 701 231 L775 700 Z " />
<glyph glyph-name="ij" unicode="&#x133;" horiz-adv-x="530" d="M193 637 C234 637 264 664 264 712 C264 746 241 770 204 770 C166 770 133 742 133 695 C133 660 158 637 193 637 L193 637 Z M468 637 C509 637 539 664 539 712 C539 746 516 770 479 770 C441 770 408 742 408 695 C408 660 433 637 468 637 L468 637 Z M144 -11 C165 -11 190 -7 210 0 L222 73 C209 67 194 64 182 64 C155 64 144 77 149 108 L215 525 L123 525 L57 106 C48 47 59 -11 144 -11 L144 -11 Z M206 -206 C323 -206 388 -150 409 -20 L495 525 L403 525 L317 -20 C305 -87 279 -121 210 -121 C196 -121 180 -119 162 -114 L147 -196 C163 -203 187 -206 206 -206 L206 -206 Z " />
<glyph glyph-name="uni0136" unicode="&#x136;" horiz-adv-x="669" d="M518 121 L439 336 C588 394 653 538 678 700 L586 700 C558 521 489 394 291 394 L206 394 L255 700 L161 700 L50 0 L144 0 L193 308 L278 308 C301 308 323 309 344 312 L435 67 C457 7 487 -11 548 -11 C566 -11 589 -8 602 -1 L614 73 C605 69 595 67 580 67 C555 67 535 75 518 121 L518 121 Z M280 -39 C237 -39 208 -68 208 -111 C208 -141 229 -163 260 -163 L264 -163 C261 -185 242 -217 207 -252 L271 -252 C324 -204 342 -147 342 -106 C342 -62 317 -39 280 -39 L280 -39 Z " />
<glyph glyph-name="uni0137" unicode="&#x137;" horiz-adv-x="566" d="M426 94 L326 300 L574 525 L460 525 L171 270 L247 750 L155 750 L36 0 L128 0 L153 156 L253 242 L344 55 C370 2 395 -11 440 -11 C462 -11 485 -8 507 0 L519 73 C504 67 493 64 476 64 C456 64 436 73 426 94 L426 94 Z M228 -39 C185 -39 156 -68 156 -111 C156 -141 177 -163 208 -163 L212 -163 C209 -185 190 -217 155 -252 L219 -252 C272 -204 290 -147 290 -106 C290 -62 265 -39 228 -39 L228 -39 Z " />
<glyph glyph-name="kgreenlandic" unicode="&#x138;" horiz-adv-x="573" d="M438 94 L334 308 L585 525 L461 525 L171 269 L211 525 L119 525 L36 0 L128 0 L153 155 L257 246 L347 55 C372 2 402 -11 444 -11 C471 -11 494 -8 516 -3 L528 73 C513 68 498 66 484 66 C465 66 448 73 438 94 L438 94 Z " />
<glyph glyph-name="Lacute" unicode="&#x139;" horiz-adv-x="544" d="M367 875 L326 959 L95 824 L129 764 L367 875 Z M158 86 L255 700 L161 700 L50 0 L487 0 L501 86 L158 86 Z " />
<glyph glyph-name="lacute" unicode="&#x13a;" horiz-adv-x="283" d="M120 764 L358 875 L317 959 L86 824 L120 764 Z M153 -11 C187 -11 216 -5 238 7 L250 80 C231 69 210 64 190 64 C140 64 140 92 149 146 L245 750 L153 750 L54 128 C37 24 79 -11 153 -11 L153 -11 Z " />
<glyph glyph-name="uni013B" unicode="&#x13b;" horiz-adv-x="544" d="M158 86 L255 700 L161 700 L50 0 L487 0 L501 86 L158 86 Z M277 -39 C234 -39 205 -68 205 -111 C205 -141 226 -163 257 -163 L261 -163 C258 -185 239 -217 204 -252 L268 -252 C321 -204 339 -147 339 -106 C339 -62 314 -39 277 -39 L277 -39 Z " />
<glyph glyph-name="uni013C" unicode="&#x13c;" horiz-adv-x="283" d="M153 -11 C187 -11 216 -5 238 7 L250 80 C231 69 210 64 190 64 C140 64 140 92 149 146 L245 750 L153 750 L54 128 C37 24 79 -11 153 -11 L153 -11 Z M49 -252 L113 -252 C166 -204 184 -147 184 -106 C184 -62 159 -39 122 -39 C79 -39 50 -68 50 -111 C50 -141 71 -163 102 -163 L106 -163 C103 -185 84 -217 49 -252 L49 -252 Z " />
<glyph glyph-name="Lcaron" unicode="&#x13d;" horiz-adv-x="546" d="M502 710 L414 710 L385 469 L455 469 L502 710 Z M255 700 L161 700 L50 0 L487 0 L501 86 L158 86 L255 700 Z " />
<glyph glyph-name="lcaron" unicode="&#x13e;" horiz-adv-x="292" d="M272 518 L341 518 L389 759 L300 759 L272 518 Z M153 -11 C187 -11 216 -5 238 7 L250 80 C231 69 210 64 190 64 C140 64 140 92 149 146 L245 750 L153 750 L54 128 C37 24 79 -11 153 -11 L153 -11 Z " />
<glyph glyph-name="Ldot" unicode="&#x13f;" horiz-adv-x="551" d="M255 700 L161 700 L50 0 L487 0 L501 86 L158 86 L255 700 Z M432 328 C479 328 510 354 510 401 C510 434 488 452 452 452 C407 452 373 427 373 380 C373 346 396 328 432 328 L432 328 Z " />
<glyph glyph-name="ldot" unicode="&#x140;" horiz-adv-x="290" d="M153 -11 C187 -11 216 -5 238 7 L250 80 C231 69 210 64 190 64 C140 64 140 92 149 146 L245 750 L153 750 L54 128 C37 24 79 -11 153 -11 L153 -11 Z M283 327 C324 327 354 354 354 402 C354 436 331 460 294 460 C256 460 223 432 223 385 C223 350 248 327 283 327 L283 327 Z " />
<glyph glyph-name="Lslash" unicode="&#x141;" horiz-adv-x="592" d="M206 86 L246 338 L382 422 L355 485 L260 426 L303 700 L209 700 L155 362 L19 278 L45 215 L141 274 L98 0 L535 0 L549 86 L206 86 Z " />
<glyph glyph-name="lslash" unicode="&#x142;" horiz-adv-x="283" d="M149 146 L183 363 L317 425 L289 489 L197 446 L245 750 L153 750 L97 400 L-18 346 L10 282 L84 316 L54 128 C37 24 79 -11 153 -11 C187 -11 216 -5 238 7 L250 80 C231 69 210 64 190 64 C140 64 140 92 149 146 L149 146 Z " />
<glyph glyph-name="Nacute" unicode="&#x143;" horiz-adv-x="734" d="M595 875 L554 959 L323 824 L357 764 L595 875 Z M623 700 L545 210 L536 145 L246 700 L161 700 L50 0 L140 0 L218 491 C221 507 224 529 227 555 L517 0 L602 0 L713 700 L623 700 Z " />
<glyph glyph-name="nacute" unicode="&#x144;" horiz-adv-x="616" d="M505 745 L451 820 L238 649 L281 590 L505 745 Z M532 64 C508 64 496 77 501 107 L535 324 C556 457 501 541 370 541 C306 541 244 517 192 465 L181 525 L119 525 L36 0 L128 0 L189 384 C237 436 293 461 345 461 C422 461 458 414 442 316 L410 114 C398 38 416 -11 496 -11 C519 -11 543 -7 562 0 L574 73 C559 67 550 64 532 64 L532 64 Z " />
<glyph glyph-name="uni0145" unicode="&#x145;" horiz-adv-x="734" d="M623 700 L545 210 L536 145 L246 700 L161 700 L50 0 L140 0 L218 491 C221 507 224 529 227 555 L517 0 L602 0 L713 700 L623 700 Z M312 -39 C269 -39 240 -68 240 -111 C240 -141 261 -163 292 -163 L296 -163 C293 -185 274 -217 239 -252 L303 -252 C356 -204 374 -147 374 -106 C374 -62 349 -39 312 -39 L312 -39 Z " />
<glyph glyph-name="uni0146" unicode="&#x146;" horiz-adv-x="616" d="M532 64 C508 64 496 77 501 107 L535 324 C556 457 501 541 370 541 C306 541 244 517 192 465 L181 525 L119 525 L36 0 L128 0 L189 384 C237 436 293 461 345 461 C422 461 458 414 442 316 L410 114 C398 38 416 -11 496 -11 C519 -11 543 -7 562 0 L574 73 C559 67 550 64 532 64 L532 64 Z M272 -39 C229 -39 200 -68 200 -111 C200 -141 221 -163 252 -163 L256 -163 C253 -185 234 -217 199 -252 L263 -252 C316 -204 334 -147 334 -106 C334 -62 309 -39 272 -39 L272 -39 Z " />
<glyph glyph-name="Ncaron" unicode="&#x147;" horiz-adv-x="734" d="M643 912 L613 962 L460 861 L340 962 L295 912 L445 764 L643 912 Z M623 700 L545 210 L536 145 L246 700 L161 700 L50 0 L140 0 L218 491 C221 507 224 529 227 555 L517 0 L602 0 L713 700 L623 700 Z " />
<glyph glyph-name="ncaron" unicode="&#x148;" horiz-adv-x="616" d="M560 774 L519 830 L362 711 L258 827 L199 776 L351 596 L560 774 Z M532 64 C508 64 496 77 501 107 L535 324 C556 457 501 541 370 541 C306 541 244 517 192 465 L181 525 L119 525 L36 0 L128 0 L189 384 C237 436 293 461 345 461 C422 461 458 414 442 316 L410 114 C398 38 416 -11 496 -11 C519 -11 543 -7 562 0 L574 73 C559 67 550 64 532 64 L532 64 Z " />
<glyph glyph-name="napostrophe" unicode="&#x149;" horiz-adv-x="675" d="M233 758 C233 808 208 826 172 826 C127 826 94 793 94 748 C94 715 116 693 147 693 L152 693 C147 660 118 610 59 556 L125 556 C200 629 233 699 233 758 L233 758 Z M591 64 C567 64 555 77 560 107 L594 324 C615 457 560 541 429 541 C365 541 303 517 251 465 L240 525 L178 525 L95 0 L187 0 L248 384 C296 436 352 461 404 461 C481 461 517 414 501 316 L469 114 C457 38 475 -11 555 -11 C578 -11 602 -7 621 0 L633 73 C618 67 609 64 591 64 L591 64 Z " />
<glyph glyph-name="Eng" unicode="&#x14a;" horiz-adv-x="736" d="M623 700 L545 210 C542 191 539 172 537 153 L246 700 L161 700 L50 0 L140 0 L218 491 C221 510 224 528 226 547 L509 14 L508 3 C499 -71 468 -104 397 -104 C365 -104 332 -100 313 -93 L300 -176 C324 -184 348 -188 404 -188 C521 -188 585 -117 602 0 L713 700 L623 700 Z " />
<glyph glyph-name="eng" unicode="&#x14b;" horiz-adv-x="597" d="M370 541 C306 541 244 517 192 465 L181 525 L119 525 L36 0 L128 0 L189 384 C237 436 293 461 345 461 C422 461 458 414 442 315 L392 0 C381 -70 332 -104 273 -104 C257 -104 242 -103 224 -99 L219 -185 C239 -188 255 -190 276 -190 C388 -190 465 -121 484 0 L535 324 C556 457 501 541 370 541 L370 541 Z " />
<glyph glyph-name="Omacron" unicode="&#x14c;" horiz-adv-x="747" d="M311 811 L608 811 L620 886 L323 886 L311 811 Z M355 -16 C566 -16 720 156 720 412 C720 590 619 720 425 720 C211 720 56 545 56 290 C56 111 158 -16 355 -16 L355 -16 Z M365 66 C223 66 152 164 152 301 C152 505 270 638 415 638 C553 638 623 538 623 401 C623 197 506 66 365 66 L365 66 Z " />
<glyph glyph-name="omacron" unicode="&#x14d;" horiz-adv-x="598" d="M522 735 L225 735 L213 658 L510 658 L522 735 Z M269 -16 C444 -16 565 121 558 324 C554 448 471 541 330 541 C156 541 34 406 41 203 C45 78 128 -16 269 -16 L269 -16 Z M282 64 C189 64 134 124 134 227 C134 368 215 461 316 461 C410 461 465 401 465 297 C465 158 387 64 282 64 L282 64 Z " />
<glyph glyph-name="Ohungarumlaut" unicode="&#x150;" horiz-adv-x="747" d="M360 744 L495 942 L426 984 L305 778 L360 744 Z M540 744 L675 942 L606 984 L485 778 L540 744 Z M355 -16 C566 -16 720 156 720 412 C720 590 619 720 425 720 C211 720 56 545 56 290 C56 111 158 -16 355 -16 L355 -16 Z M365 66 C223 66 152 164 152 301 C152 505 270 638 415 638 C553 638 623 538 623 401 C623 197 506 66 365 66 L365 66 Z " />
<glyph glyph-name="ohungarumlaut" unicode="&#x151;" horiz-adv-x="598" d="M276 585 L403 802 L328 834 L218 611 L276 585 Z M470 585 L597 802 L522 834 L412 611 L470 585 Z M269 -16 C444 -16 565 121 558 324 C554 448 471 541 330 541 C156 541 34 406 41 203 C45 78 128 -16 269 -16 L269 -16 Z M282 64 C189 64 134 124 134 227 C134 368 215 461 316 461 C410 461 465 401 465 297 C465 158 387 64 282 64 L282 64 Z " />
<glyph glyph-name="OE" unicode="&#x152;" horiz-adv-x="1094" d="M1096 614 L1110 700 L680 700 L665 607 C617 677 536 720 425 720 C211 720 56 545 56 290 C56 111 158 -16 355 -16 C442 -16 519 13 579 65 L569 0 L1005 0 L1019 86 L677 86 L713 311 L1012 311 L1026 397 L726 397 L760 614 L1096 614 Z M365 66 C223 66 152 164 152 301 C152 505 270 638 415 638 C553 638 623 538 623 401 C623 197 506 66 365 66 L365 66 Z " />
<glyph glyph-name="oe" unicode="&#x153;" horiz-adv-x="956" d="M936 388 C936 483 867 541 756 541 C658 541 581 498 530 432 C494 498 426 541 330 541 C156 541 34 406 41 203 C45 78 128 -16 269 -16 C362 -16 440 23 492 90 C528 24 597 -16 700 -16 C751 -16 802 -7 854 16 L868 101 C810 77 764 64 713 64 C602 64 558 132 556 228 C592 216 642 207 707 207 C872 207 936 283 936 388 L936 388 Z M282 64 C189 64 134 124 134 227 C134 368 215 461 316 461 C410 461 465 401 465 297 C465 158 387 64 282 64 L282 64 Z M742 461 C792 461 843 444 843 379 C843 321 803 282 719 282 C664 282 617 288 565 305 C587 391 650 461 742 461 L742 461 Z " />
<glyph glyph-name="Racute" unicode="&#x154;" horiz-adv-x="654" d="M555 875 L514 959 L283 824 L317 764 L555 875 Z M495 131 L433 278 C538 303 624 374 624 507 C624 635 541 700 409 700 L161 700 L50 0 L144 0 L186 268 L337 268 L412 86 C445 7 479 -11 531 -11 C550 -11 571 -8 587 -2 L599 76 C588 73 578 71 566 71 C537 71 515 83 495 131 L495 131 Z M242 615 L393 615 C473 615 526 586 526 501 C526 398 452 353 352 353 L200 353 L242 615 Z " />
<glyph glyph-name="racute" unicode="&#x155;" horiz-adv-x="385" d="M436 745 L382 820 L169 649 L212 590 L436 745 Z M197 460 L198 525 L119 525 L36 0 L128 0 L186 362 C230 421 285 454 344 454 C364 454 381 452 397 446 L411 535 C399 539 382 541 367 541 C311 541 250 517 197 460 L197 460 Z " />
<glyph glyph-name="uni0156" unicode="&#x156;" horiz-adv-x="654" d="M495 131 L433 278 C538 303 624 374 624 507 C624 635 541 700 409 700 L161 700 L50 0 L144 0 L186 268 L337 268 L412 86 C445 7 479 -11 531 -11 C550 -11 571 -8 587 -2 L599 76 C588 73 578 71 566 71 C537 71 515 83 495 131 L495 131 Z M242 615 L393 615 C473 615 526 586 526 501 C526 398 452 353 352 353 L200 353 L242 615 Z M272 -39 C229 -39 200 -68 200 -111 C200 -141 221 -163 252 -163 L256 -163 C253 -185 234 -217 199 -252 L263 -252 C316 -204 334 -147 334 -106 C334 -62 309 -39 272 -39 L272 -39 Z " />
<glyph glyph-name="uni0157" unicode="&#x157;" horiz-adv-x="385" d="M367 541 C311 541 250 517 197 460 L198 525 L119 525 L36 0 L128 0 L186 362 C230 421 285 454 344 454 C364 454 381 452 397 446 L411 535 C399 539 382 541 367 541 L367 541 Z M78 -39 C35 -39 6 -68 6 -111 C6 -141 27 -163 58 -163 L62 -163 C59 -185 40 -217 5 -252 L69 -252 C122 -204 140 -147 140 -106 C140 -62 115 -39 78 -39 L78 -39 Z " />
<glyph glyph-name="Rcaron" unicode="&#x158;" horiz-adv-x="654" d="M603 912 L573 962 L420 861 L300 962 L255 912 L405 764 L603 912 Z M495 131 L433 278 C538 303 624 374 624 507 C624 635 541 700 409 700 L161 700 L50 0 L144 0 L186 268 L337 268 L412 86 C445 7 479 -11 531 -11 C550 -11 571 -8 587 -2 L599 76 C588 73 578 71 566 71 C537 71 515 83 495 131 L495 131 Z M242 615 L393 615 C473 615 526 586 526 501 C526 398 452 353 352 353 L200 353 L242 615 Z " />
<glyph glyph-name="rcaron" unicode="&#x159;" horiz-adv-x="385" d="M491 774 L450 830 L293 711 L189 827 L130 776 L282 596 L491 774 Z M197 460 L198 525 L119 525 L36 0 L128 0 L186 362 C230 421 285 454 344 454 C364 454 381 452 397 446 L411 535 C399 539 382 541 367 541 C311 541 250 517 197 460 L197 460 Z " />
<glyph glyph-name="Sacute" unicode="&#x15a;" horiz-adv-x="576" d="M278 764 L516 875 L475 959 L244 824 L278 764 Z M229 -18 C424 -18 529 58 529 206 C529 310 466 368 324 409 C218 439 184 468 184 520 C184 601 249 638 369 638 C439 638 499 625 557 600 L571 685 C519 708 447 720 376 720 C201 720 93 648 93 510 C93 411 156 359 276 324 C391 291 434 258 434 190 C434 100 358 64 244 64 C151 64 81 84 29 120 L14 29 C64 2 141 -18 229 -18 L229 -18 Z " />
<glyph glyph-name="sacute" unicode="&#x15b;" horiz-adv-x="481" d="M224 590 L448 745 L394 820 L181 649 L224 590 Z M185 -16 C337 -16 427 40 427 153 C427 242 384 288 285 309 C192 329 159 345 159 388 C159 432 199 461 287 461 C342 461 386 453 441 430 L455 513 C412 530 364 541 292 541 C152 541 67 480 67 378 C67 294 118 251 223 229 C306 212 335 191 335 144 C335 92 292 64 197 64 C135 64 76 79 23 109 L9 21 C53 -1 118 -16 185 -16 L185 -16 Z " />
<glyph glyph-name="Scedilla" unicode="&#x15e;" horiz-adv-x="576" d="M369 638 C439 638 499 625 557 600 L571 685 C519 708 447 720 376 720 C201 720 93 648 93 510 C93 411 156 359 276 324 C391 291 434 258 434 190 C434 100 358 64 244 64 C151 64 81 84 29 120 L14 29 C60 4 129 -15 209 -18 L172 -96 L209 -96 C247 -96 267 -109 267 -136 C267 -168 244 -181 209 -181 C185 -181 154 -174 130 -158 L120 -223 C146 -237 175 -243 213 -243 C284 -243 350 -207 350 -127 C350 -76 316 -48 262 -46 L275 -16 C440 -5 529 70 529 206 C529 310 466 368 324 409 C218 439 184 468 184 520 C184 601 249 638 369 638 L369 638 Z " />
<glyph glyph-name="scedilla" unicode="&#x15f;" horiz-adv-x="481" d="M287 461 C342 461 386 453 441 430 L455 513 C412 530 364 541 292 541 C152 541 67 480 67 378 C67 294 118 251 223 229 C306 212 335 191 335 144 C335 92 292 64 197 64 C135 64 76 79 23 109 L9 21 C48 1 104 -13 163 -15 L125 -96 L162 -96 C200 -96 220 -109 220 -136 C220 -168 197 -181 162 -181 C138 -181 107 -174 83 -158 L73 -223 C99 -237 128 -243 166 -243 C237 -243 303 -207 303 -127 C303 -76 269 -48 215 -46 L229 -14 C354 -4 427 51 427 153 C427 242 384 288 285 309 C192 329 159 345 159 388 C159 432 199 461 287 461 L287 461 Z " />
<glyph glyph-name="Scaron" unicode="&#x160;" horiz-adv-x="576" d="M534 962 L381 861 L261 962 L216 912 L366 764 L564 912 L534 962 Z M229 -18 C424 -18 529 58 529 206 C529 310 466 368 324 409 C218 439 184 468 184 520 C184 601 249 638 369 638 C439 638 499 625 557 600 L571 685 C519 708 447 720 376 720 C201 720 93 648 93 510 C93 411 156 359 276 324 C391 291 434 258 434 190 C434 100 358 64 244 64 C151 64 81 84 29 120 L14 29 C64 2 141 -18 229 -18 L229 -18 Z " />
<glyph glyph-name="scaron" unicode="&#x161;" horiz-adv-x="481" d="M294 596 L503 774 L462 830 L305 711 L201 827 L142 776 L294 596 Z M185 -16 C337 -16 427 40 427 153 C427 242 384 288 285 309 C192 329 159 345 159 388 C159 432 199 461 287 461 C342 461 386 453 441 430 L455 513 C412 530 364 541 292 541 C152 541 67 480 67 378 C67 294 118 251 223 229 C306 212 335 191 335 144 C335 92 292 64 197 64 C135 64 76 79 23 109 L9 21 C53 -1 118 -16 185 -16 L185 -16 Z " />
<glyph glyph-name="uni0162" unicode="&#x162;" horiz-adv-x="582" d="M296 0 L393 614 L622 614 L636 700 L86 700 L72 614 L299 614 L202 0 L220 0 L175 -96 L212 -96 C250 -96 270 -109 270 -136 C270 -168 247 -181 212 -181 C188 -181 157 -174 133 -158 L123 -223 C149 -237 178 -243 216 -243 C287 -243 353 -207 353 -127 C353 -76 319 -48 265 -46 L285 0 L296 0 Z " />
<glyph glyph-name="uni0163" unicode="&#x163;" horiz-adv-x="425" d="M226 445 L427 445 L440 525 L239 525 L259 652 L192 652 L147 525 L62 525 L49 445 L133 445 L93 189 C74 71 116 12 191 -6 L148 -96 L185 -96 C223 -96 243 -109 243 -136 C243 -168 220 -181 185 -181 C161 -181 130 -174 106 -158 L96 -223 C122 -237 151 -243 189 -243 C260 -243 326 -207 326 -127 C326 -76 292 -48 238 -46 L253 -11 C295 -10 330 -2 369 15 L382 93 C347 79 305 69 271 69 C198 69 172 102 185 187 L226 445 Z " />
<glyph glyph-name="Tcaron" unicode="&#x164;" horiz-adv-x="582" d="M567 912 L537 962 L384 861 L264 962 L219 912 L369 764 L567 912 Z M636 700 L86 700 L72 614 L299 614 L202 0 L296 0 L393 614 L622 614 L636 700 Z " />
<glyph glyph-name="tcaron" unicode="&#x165;" horiz-adv-x="425" d="M437 809 L348 809 L320 568 L389 568 L437 809 Z M226 445 L427 445 L440 525 L239 525 L259 652 L192 652 L147 525 L62 525 L49 445 L133 445 L93 189 C70 46 137 -11 242 -11 C289 -11 327 -3 369 15 L382 93 C347 79 305 69 271 69 C198 69 172 102 185 187 L226 445 Z " />
<glyph glyph-name="Tbar" unicode="&#x166;" horiz-adv-x="588" d="M625 614 L639 700 L89 700 L75 614 L302 614 L265 379 L161 379 L147 290 L251 290 L205 0 L299 0 L345 290 L450 290 L464 379 L359 379 L396 614 L625 614 Z " />
<glyph glyph-name="tbar" unicode="&#x167;" horiz-adv-x="429" d="M431 440 L444 525 L243 525 L263 652 L196 652 L151 525 L66 525 L53 440 L137 440 L117 313 L49 313 L34 224 L103 224 L96 180 C75 50 115 -11 231 -11 C282 -11 327 -4 373 15 L385 91 C350 77 309 69 275 69 C197 69 176 102 189 187 L195 224 L318 224 L333 313 L209 313 L229 440 L431 440 Z " />
<glyph glyph-name="Utilde" unicode="&#x168;" horiz-adv-x="735" d="M402 846 C442 846 466 804 526 804 C577 804 616 843 642 906 L575 929 C563 904 548 886 524 886 C481 886 458 928 399 928 C349 928 307 890 283 830 L349 803 C361 827 375 846 402 846 L402 846 Z M606 122 L698 700 L605 700 L520 163 C474 114 412 64 332 64 C199 64 158 134 179 269 L247 700 L152 700 L84 269 C58 102 125 -16 313 -16 C404 -16 465 23 509 65 C512 22 534 -11 598 -11 C620 -11 641 -9 664 0 L676 76 C665 70 651 67 641 67 C606 67 600 86 606 122 L606 122 Z " />
<glyph glyph-name="utilde" unicode="&#x169;" horiz-adv-x="607" d="M295 690 C334 690 353 642 423 642 C479 642 512 689 533 743 L470 770 C454 731 436 722 412 722 C373 722 351 769 285 769 C229 769 195 724 174 671 L238 641 C255 679 273 690 295 690 L295 690 Z M516 64 C489 64 480 80 485 110 L551 525 L459 525 L398 141 C351 86 297 65 250 65 C173 65 138 104 155 205 L206 525 L114 525 L63 200 C41 59 101 -15 221 -15 C298 -15 348 10 392 53 C398 13 424 -11 482 -11 C499 -11 521 -9 546 0 L558 73 C543 67 532 64 516 64 L516 64 Z " />
<glyph glyph-name="Umacron" unicode="&#x16a;" horiz-adv-x="735" d="M614 886 L317 886 L305 811 L602 811 L614 886 Z M606 122 L698 700 L605 700 L520 163 C474 114 412 64 332 64 C199 64 158 134 179 269 L247 700 L152 700 L84 269 C58 102 125 -16 313 -16 C404 -16 465 23 509 65 C512 22 534 -11 598 -11 C620 -11 641 -9 664 0 L676 76 C665 70 651 67 641 67 C606 67 600 86 606 122 L606 122 Z " />
<glyph glyph-name="umacron" unicode="&#x16b;" horiz-adv-x="607" d="M514 735 L217 735 L205 658 L502 658 L514 735 Z M516 64 C489 64 480 80 485 110 L551 525 L459 525 L398 141 C351 86 297 65 250 65 C173 65 138 104 155 205 L206 525 L114 525 L63 200 C41 59 101 -15 221 -15 C298 -15 348 10 392 53 C398 13 424 -11 482 -11 C499 -11 521 -9 546 0 L558 73 C543 67 532 64 516 64 L516 64 Z " />
<glyph glyph-name="Uring" unicode="&#x16e;" horiz-adv-x="735" d="M457 754 C536 754 594 806 594 885 C594 947 551 995 474 995 C392 995 335 943 335 864 C335 802 378 754 457 754 L457 754 Z M468 936 C502 936 526 914 526 879 C526 839 501 813 461 813 C427 813 403 834 403 869 C403 909 427 936 468 936 L468 936 Z M606 122 L698 700 L605 700 L520 163 C474 114 412 64 332 64 C199 64 158 134 179 269 L247 700 L152 700 L84 269 C58 102 125 -16 313 -16 C404 -16 465 23 509 65 C512 22 534 -11 598 -11 C620 -11 641 -9 664 0 L676 76 C665 70 651 67 641 67 C606 67 600 86 606 122 L606 122 Z " />
<glyph glyph-name="uring" unicode="&#x16f;" horiz-adv-x="607" d="M352 592 C435 592 483 644 483 722 C483 787 436 828 372 828 C288 828 242 775 242 699 C242 632 288 592 352 592 L352 592 Z M365 772 C395 773 417 754 417 719 C417 676 397 649 356 649 C327 649 306 667 306 703 C306 745 328 771 365 772 L365 772 Z M516 64 C489 64 480 80 485 110 L551 525 L459 525 L398 141 C351 86 297 65 250 65 C173 65 138 104 155 205 L206 525 L114 525 L63 200 C41 59 101 -15 221 -15 C298 -15 348 10 392 53 C398 13 424 -11 482 -11 C499 -11 521 -9 546 0 L558 73 C543 67 532 64 516 64 L516 64 Z " />
<glyph glyph-name="Uhungarumlaut" unicode="&#x170;" horiz-adv-x="735" d="M489 942 L420 984 L299 778 L354 744 L489 942 Z M534 744 L669 942 L600 984 L479 778 L534 744 Z M606 122 L698 700 L605 700 L520 163 C474 114 412 64 332 64 C199 64 158 134 179 269 L247 700 L152 700 L84 269 C58 102 125 -16 313 -16 C404 -16 465 23 509 65 C512 22 534 -11 598 -11 C620 -11 641 -9 664 0 L676 76 C665 70 651 67 641 67 C606 67 600 86 606 122 L606 122 Z " />
<glyph glyph-name="uhungarumlaut" unicode="&#x171;" horiz-adv-x="607" d="M395 802 L320 834 L210 611 L268 585 L395 802 Z M589 802 L514 834 L404 611 L462 585 L589 802 Z M485 110 L551 525 L459 525 L398 141 C351 86 297 65 250 65 C173 65 138 104 155 205 L206 525 L114 525 L63 200 C41 59 101 -15 221 -15 C298 -15 348 10 392 53 C398 13 424 -11 482 -11 C499 -11 521 -9 546 0 L558 73 C543 67 532 64 516 64 C489 64 480 80 485 110 L485 110 Z " />
<glyph glyph-name="Uogonek" unicode="&#x172;" horiz-adv-x="735" d="M606 122 L698 700 L605 700 L520 163 C474 114 412 64 332 64 C199 64 158 134 179 269 L247 700 L152 700 L84 269 C58 102 125 -16 313 -16 C404 -16 465 23 509 65 C512 29 527 -1 571 -9 C515 -43 472 -93 472 -159 C472 -203 498 -242 560 -242 C586 -242 611 -238 632 -228 L642 -163 C626 -170 612 -172 599 -172 C573 -172 559 -155 559 -129 C559 -78 600 -38 664 0 L676 76 C665 70 651 67 641 67 C606 67 600 86 606 122 L606 122 Z " />
<glyph glyph-name="uogonek" unicode="&#x173;" horiz-adv-x="607" d="M546 0 L558 73 C543 67 532 64 516 64 C489 64 480 80 485 110 L551 525 L459 525 L398 141 C351 86 297 65 250 65 C173 65 138 104 155 205 L206 525 L114 525 L63 200 C41 59 101 -15 221 -15 C298 -15 348 10 392 53 C397 20 415 -2 454 -9 C397 -43 354 -93 354 -159 C354 -203 380 -242 442 -242 C468 -242 493 -238 514 -228 L524 -163 C508 -170 494 -172 481 -172 C455 -172 441 -155 441 -129 C441 -78 482 -38 546 0 L546 0 Z " />
<glyph glyph-name="Wcircumflex" unicode="&#x174;" horiz-adv-x="931" d="M561 865 L682 764 L727 814 L576 962 L379 814 L409 764 L561 865 Z M884 700 L640 112 L584 700 L490 700 L249 117 L192 700 L91 700 L182 0 L277 0 L515 547 L571 0 L666 0 L979 700 L884 700 Z " />
<glyph glyph-name="wcircumflex" unicode="&#x175;" horiz-adv-x="807" d="M493 711 L597 595 L656 646 L504 826 L295 648 L336 592 L493 711 Z M719 525 C684 376 622 218 538 94 L493 525 L403 525 L224 115 L164 525 L66 525 L163 0 L253 0 L426 385 L470 0 L560 0 C678 149 761 339 810 525 L719 525 Z " />
<glyph glyph-name="Ycircumflex" unicode="&#x176;" horiz-adv-x="638" d="M414 865 L535 764 L580 814 L429 962 L232 814 L262 764 L414 865 Z M689 700 L584 700 L426 471 C384 410 351 365 331 336 C318 370 298 421 278 470 L187 700 L87 700 L272 254 L232 0 L325 0 L364 249 L689 700 Z " />
<glyph glyph-name="ycircumflex" unicode="&#x177;" horiz-adv-x="557" d="M358 711 L462 595 L521 646 L369 826 L160 648 L201 592 L358 711 Z M474 525 C424 365 345 220 259 94 L163 525 L67 525 L193 4 C143 -61 93 -120 47 -170 L150 -170 C300 -10 476 245 568 525 L474 525 Z " />
<glyph glyph-name="Ydieresis" unicode="&#x178;" horiz-adv-x="638" d="M292 789 C331 789 360 813 360 860 C360 893 337 918 301 918 C264 918 232 892 232 846 C232 812 257 789 292 789 L292 789 Z M523 789 C562 789 591 813 591 860 C591 893 568 918 532 918 C495 918 463 892 463 846 C463 812 488 789 523 789 L523 789 Z M689 700 L584 700 L426 471 C384 410 351 365 331 336 C318 370 298 421 278 470 L187 700 L87 700 L272 254 L232 0 L325 0 L364 249 L689 700 Z " />
<glyph glyph-name="Zacute" unicode="&#x179;" horiz-adv-x="606" d="M531 875 L490 959 L259 824 L293 764 L531 875 Z M619 630 L630 700 L117 700 L104 617 L345 617 C381 617 444 618 502 619 C465 580 416 528 381 489 L6 70 L-4 0 L533 0 L546 83 L263 83 C225 83 173 82 125 81 C167 125 209 171 234 198 L619 630 Z " />
<glyph glyph-name="zacute" unicode="&#x17a;" horiz-adv-x="513" d="M464 745 L410 820 L197 649 L240 590 L464 745 Z M513 525 L85 525 L73 449 L381 449 L7 58 L-2 0 L438 0 L450 76 L131 76 L504 467 L513 525 Z " />
<glyph glyph-name="Zdotaccent" unicode="&#x17b;" horiz-adv-x="606" d="M389 791 C431 791 463 819 463 861 C463 895 439 920 402 920 C360 920 329 891 329 849 C329 815 353 791 389 791 L389 791 Z M619 630 L630 700 L117 700 L104 617 L345 617 C381 617 444 618 502 619 C465 580 416 528 381 489 L6 70 L-4 0 L533 0 L546 83 L263 83 C225 83 173 82 125 81 C167 125 209 171 234 198 L619 630 Z " />
<glyph glyph-name="zdotaccent" unicode="&#x17c;" horiz-adv-x="513" d="M322 637 C363 637 393 664 393 712 C393 746 370 770 333 770 C295 770 262 742 262 695 C262 660 287 637 322 637 L322 637 Z M513 525 L85 525 L73 449 L381 449 L7 58 L-2 0 L438 0 L450 76 L131 76 L504 467 L513 525 Z " />
<glyph glyph-name="Zcaron" unicode="&#x17d;" horiz-adv-x="606" d="M579 912 L549 962 L396 861 L276 962 L231 912 L381 764 L579 912 Z M619 630 L630 700 L117 700 L104 617 L345 617 C381 617 444 618 502 619 C465 580 416 528 381 489 L6 70 L-4 0 L533 0 L546 83 L263 83 C225 83 173 82 125 81 C167 125 209 171 234 198 L619 630 Z " />
<glyph glyph-name="zcaron" unicode="&#x17e;" horiz-adv-x="513" d="M519 774 L478 830 L321 711 L217 827 L158 776 L310 596 L519 774 Z M73 449 L381 449 L7 58 L-2 0 L438 0 L450 76 L131 76 L504 467 L513 525 L85 525 L73 449 Z " />
<glyph glyph-name="uni01EA" unicode="&#x1ea;" horiz-adv-x="747" d="M440 -6 C606 34 720 192 720 412 C720 590 619 720 425 720 C211 720 56 545 56 290 C56 114 155 -12 346 -16 C296 -50 258 -97 258 -159 C258 -203 284 -242 346 -242 C372 -242 397 -238 418 -228 L428 -163 C412 -170 398 -172 385 -172 C359 -172 345 -155 345 -129 C345 -81 382 -42 440 -6 L440 -6 Z M152 301 C152 505 270 638 415 638 C553 638 623 538 623 401 C623 197 506 66 365 66 C223 66 152 164 152 301 L152 301 Z " />
<glyph glyph-name="uni01EB" unicode="&#x1eb;" horiz-adv-x="598" d="M342 -7 C477 26 564 151 558 324 C554 448 471 541 330 541 C156 541 34 406 41 203 C45 83 121 -8 251 -16 C201 -50 164 -97 164 -158 C164 -202 190 -241 252 -241 C278 -241 303 -237 324 -227 L334 -162 C318 -169 304 -171 291 -171 C265 -171 251 -154 251 -128 C251 -81 286 -43 342 -7 L342 -7 Z M134 227 C134 368 215 461 316 461 C410 461 465 401 465 297 C465 158 387 64 282 64 C189 64 134 124 134 227 L134 227 Z " />
<glyph glyph-name="AEacute" unicode="&#x1fc;" horiz-adv-x="957" d="M777 875 L736 959 L505 824 L539 764 L777 875 Z M959 614 L973 700 L528 700 L-57 0 L52 0 L209 190 L462 190 L432 0 L868 0 L882 86 L540 86 L576 311 L875 311 L889 397 L589 397 L623 614 L959 614 Z M275 270 L523 571 L475 270 L275 270 Z " />
<glyph glyph-name="aeacute" unicode="&#x1fd;" horiz-adv-x="880" d="M646 745 L592 820 L379 649 L422 590 L646 745 Z M831 232 C836 249 846 285 846 341 C846 472 777 541 652 541 C572 541 508 508 462 457 C433 513 372 541 283 541 C225 541 168 528 118 508 L105 422 C153 444 211 457 275 457 C351 457 388 429 388 366 C388 355 387 344 385 332 L377 279 C331 295 283 303 233 303 C99 303 14 238 14 131 C14 30 79 -15 176 -15 C261 -15 332 6 402 85 C438 22 504 -15 601 -15 C670 -15 727 -3 771 16 L784 101 C722 77 682 67 613 67 C519 67 463 125 463 226 L463 232 L831 232 Z M638 461 C714 461 752 424 752 336 C752 328 752 320 750 308 L472 308 C495 404 560 461 638 461 L638 461 Z M204 61 C144 61 108 85 108 140 C108 199 156 230 238 230 C280 230 331 220 372 204 C373 186 374 169 378 152 C319 80 253 61 204 61 L204 61 Z " />
<glyph glyph-name="Oslashacute" unicode="&#x1fe;" horiz-adv-x="763" d="M610 875 L569 959 L338 824 L372 764 L610 875 Z M783 670 L745 722 L652 634 C602 688 529 720 433 720 C219 720 64 545 64 290 C64 225 78 166 104 119 L9 29 L46 -23 L142 67 C192 15 266 -16 363 -16 C574 -16 728 156 728 412 C728 476 715 534 689 582 L783 670 Z M160 301 C160 505 278 638 423 638 C494 638 546 612 581 568 L179 189 C166 222 160 260 160 301 L160 301 Z M631 401 C631 197 514 66 373 66 C301 66 248 91 212 133 L613 510 C625 478 631 441 631 401 L631 401 Z " />
<glyph glyph-name="oslashacute" unicode="&#x1ff;" horiz-adv-x="610" d="M512 745 L458 820 L245 649 L288 590 L512 745 Z M535 436 L609 506 L566 552 L496 486 C457 520 403 541 337 541 C163 541 41 406 48 203 C49 158 61 117 82 83 L7 12 L50 -35 L123 35 C161 3 213 -16 276 -16 C451 -16 572 121 565 324 C564 366 553 404 535 436 L535 436 Z M323 461 C369 461 406 446 432 419 L154 149 C146 171 141 197 141 227 C141 368 222 461 323 461 L323 461 Z M289 64 C246 64 211 77 186 101 L461 370 C468 349 472 324 472 297 C472 158 394 64 289 64 L289 64 Z " />
<glyph glyph-name="uni0218" unicode="&#x218;" horiz-adv-x="576" d="M229 -18 C424 -18 529 58 529 206 C529 310 466 368 324 409 C218 439 184 468 184 520 C184 601 249 638 369 638 C439 638 499 625 557 600 L571 685 C519 708 447 720 376 720 C201 720 93 648 93 510 C93 411 156 359 276 324 C391 291 434 258 434 190 C434 100 358 64 244 64 C151 64 81 84 29 120 L14 29 C64 2 141 -18 229 -18 L229 -18 Z M160 -252 L224 -252 C277 -204 295 -147 295 -106 C295 -62 270 -39 233 -39 C190 -39 161 -68 161 -111 C161 -141 182 -163 213 -163 L217 -163 C214 -185 195 -217 160 -252 L160 -252 Z " />
<glyph glyph-name="uni0219" unicode="&#x219;" horiz-adv-x="481" d="M185 -16 C337 -16 427 40 427 153 C427 242 384 288 285 309 C192 329 159 345 159 388 C159 432 199 461 287 461 C342 461 386 453 441 430 L455 513 C412 530 364 541 292 541 C152 541 67 480 67 378 C67 294 118 251 223 229 C306 212 335 191 335 144 C335 92 292 64 197 64 C135 64 76 79 23 109 L9 21 C53 -1 118 -16 185 -16 L185 -16 Z M113 -252 L177 -252 C230 -204 248 -147 248 -106 C248 -62 223 -39 186 -39 C143 -39 114 -68 114 -111 C114 -141 135 -163 166 -163 L170 -163 C167 -185 148 -217 113 -252 L113 -252 Z " />
<glyph glyph-name="uni021A" unicode="&#x21a;" horiz-adv-x="582" d="M636 700 L86 700 L72 614 L299 614 L202 0 L296 0 L393 614 L622 614 L636 700 Z M236 -39 C193 -39 164 -68 164 -111 C164 -141 185 -163 216 -163 L220 -163 C217 -185 198 -217 163 -252 L227 -252 C280 -204 298 -147 298 -106 C298 -62 273 -39 236 -39 L236 -39 Z " />
<glyph glyph-name="uni021B" unicode="&#x21b;" horiz-adv-x="425" d="M226 445 L427 445 L440 525 L239 525 L259 652 L192 652 L147 525 L62 525 L49 445 L133 445 L93 189 C70 46 137 -11 242 -11 C289 -11 327 -3 369 15 L382 93 C347 79 305 69 271 69 C198 69 172 102 185 187 L226 445 Z M209 -39 C166 -39 137 -68 137 -111 C137 -141 158 -163 189 -163 L193 -163 C190 -185 171 -217 136 -252 L200 -252 C253 -204 271 -147 271 -106 C271 -62 246 -39 209 -39 L209 -39 Z " />
<glyph glyph-name="uni0237" unicode="&#x237;" horiz-adv-x="255" d="M-69 -206 C48 -206 113 -150 134 -20 L220 525 L128 525 L42 -20 C30 -87 4 -121 -65 -121 C-79 -121 -95 -119 -113 -114 L-128 -196 C-112 -203 -88 -206 -69 -206 L-69 -206 Z " />
<glyph glyph-name="circumflex" unicode="&#x2c6;" horiz-adv-x="401" d="M122 592 L279 711 L383 595 L442 646 L290 826 L81 648 L122 592 Z " />
<glyph glyph-name="caron" unicode="&#x2c7;" horiz-adv-x="401" d="M253 596 L462 774 L421 830 L264 711 L160 827 L101 776 L253 596 Z " />
<glyph glyph-name="breve" unicode="&#x2d8;" horiz-adv-x="370" d="M241 606 C353 606 413 670 434 790 L367 795 C357 731 320 686 253 686 C185 686 166 731 174 795 L104 790 C87 670 135 606 241 606 L241 606 Z " />
<glyph glyph-name="dotaccent" unicode="&#x2d9;" horiz-adv-x="171" d="M150 637 C191 637 221 664 221 712 C221 746 198 770 161 770 C123 770 90 742 90 695 C90 660 115 637 150 637 L150 637 Z " />
<glyph glyph-name="ring" unicode="&#x2da;" horiz-adv-x="281" d="M201 592 C284 592 332 644 332 722 C332 787 285 828 221 828 C137 828 91 775 91 699 C91 632 137 592 201 592 L201 592 Z M205 649 C176 649 155 667 155 703 C155 745 177 771 214 772 C244 773 266 754 266 719 C266 676 246 649 205 649 L205 649 Z " />
<glyph glyph-name="ogonek" unicode="&#x2db;" horiz-adv-x="213" d="M147 0 L75 3 C9 -32 -45 -85 -45 -159 C-45 -203 -19 -242 43 -242 C69 -242 94 -238 115 -228 L125 -163 C109 -170 95 -172 82 -172 C56 -172 42 -155 42 -129 C42 -78 83 -38 147 0 L147 0 Z " />
<glyph glyph-name="tilde" unicode="&#x2dc;" horiz-adv-x="388" d="M381 770 C365 731 347 722 323 722 C284 722 262 769 196 769 C140 769 106 724 85 671 L149 641 C166 679 184 690 206 690 C245 690 264 642 334 642 C390 642 423 689 444 743 L381 770 Z " />
<glyph glyph-name="hungarumlaut" unicode="&#x2dd;" horiz-adv-x="389" d="M133 585 L260 802 L185 834 L75 611 L133 585 Z M327 585 L454 802 L379 834 L269 611 L327 585 Z " />
<glyph glyph-name="gravecomb" unicode="&#x300;" d="M13 591 L59 649 L-144 820 L-201 746 L13 591 Z " />
<glyph glyph-name="acutecomb" unicode="&#x301;" d="M-162 590 L62 745 L8 820 L-205 649 L-162 590 Z " />
<glyph glyph-name="uni0302" unicode="&#x302;" d="M-276 592 L-119 711 L-15 595 L44 646 L-108 826 L-317 648 L-276 592 Z " />
<glyph glyph-name="tildecomb" unicode="&#x303;" d="M-4 770 C-20 731 -38 722 -62 722 C-101 722 -123 769 -189 769 C-245 769 -279 724 -300 671 L-236 641 C-219 679 -201 690 -179 690 C-140 690 -121 642 -51 642 C5 642 38 689 59 743 L-4 770 Z " />
<glyph glyph-name="uni0304" unicode="&#x304;" d="M56 735 L-241 735 L-253 658 L44 658 L56 735 Z " />
<glyph glyph-name="uni0306" unicode="&#x306;" d="M-128 606 C-16 606 44 670 65 790 L-2 795 C-12 731 -49 686 -116 686 C-184 686 -203 731 -195 795 L-265 790 C-282 670 -234 606 -128 606 L-128 606 Z " />
<glyph glyph-name="uni0307" unicode="&#x307;" d="M-19 637 C22 637 52 664 52 712 C52 746 29 770 -8 770 C-46 770 -79 742 -79 695 C-79 660 -54 637 -19 637 L-19 637 Z " />
<glyph glyph-name="uni0308" unicode="&#x308;" d="M-244 637 C-203 637 -173 664 -173 712 C-173 746 -196 770 -233 770 C-271 770 -304 742 -304 695 C-304 660 -279 637 -244 637 L-244 637 Z M-22 637 C19 637 49 664 49 712 C49 746 26 770 -11 770 C-49 770 -82 742 -82 695 C-82 660 -57 637 -22 637 L-22 637 Z " />
<glyph glyph-name="uni030A" unicode="&#x30a;" d="M-74 592 C9 592 57 644 57 722 C57 787 10 828 -54 828 C-138 828 -184 775 -184 699 C-184 632 -138 592 -74 592 L-74 592 Z M-70 649 C-99 649 -120 667 -120 703 C-120 745 -98 771 -61 772 C-31 773 -9 754 -9 719 C-9 676 -29 649 -70 649 L-70 649 Z " />
<glyph glyph-name="uni030B" unicode="&#x30b;" d="M-254 585 L-127 802 L-202 834 L-312 611 L-254 585 Z M-60 585 L67 802 L-8 834 L-118 611 L-60 585 Z " />
<glyph glyph-name="uni030C" unicode="&#x30c;" d="M-145 596 L64 774 L23 830 L-134 711 L-238 827 L-297 776 L-145 596 Z " />
<glyph glyph-name="uni0312" unicode="&#x312;" d="M-25 588 C18 588 44 617 44 659 C44 690 25 711 -8 711 L-12 711 C-9 733 10 765 45 800 L-18 800 C-72 754 -90 701 -90 659 C-90 611 -66 588 -25 588 L-25 588 Z " />
<glyph glyph-name="uni0326" unicode="&#x326;" d="M-213 -252 L-149 -252 C-96 -204 -78 -147 -78 -106 C-78 -62 -103 -39 -140 -39 C-183 -39 -212 -68 -212 -111 C-212 -141 -191 -163 -160 -163 L-156 -163 C-159 -185 -178 -217 -213 -252 L-213 -252 Z " />
<glyph glyph-name="uni0327" unicode="&#x327;" d="M-211 -243 C-140 -243 -74 -207 -74 -127 C-74 -76 -108 -48 -162 -46 L-140 4 L-205 4 L-252 -96 L-215 -96 C-177 -96 -157 -109 -157 -136 C-157 -168 -180 -181 -215 -181 C-239 -181 -270 -174 -294 -158 L-304 -223 C-278 -237 -249 -243 -211 -243 L-211 -243 Z " />
<glyph glyph-name="uni0328" unicode="&#x328;" d="M-64 0 L-136 3 C-202 -32 -256 -85 -256 -159 C-256 -203 -230 -242 -168 -242 C-142 -242 -117 -238 -96 -228 L-86 -163 C-102 -170 -116 -172 -129 -172 C-155 -172 -169 -155 -169 -129 C-169 -78 -128 -38 -64 0 L-64 0 Z " />
<glyph glyph-name="uni0335" unicode="&#x335;" d="M-311 329 L-325 241 L-22 241 L-8 329 L-311 329 Z " />
<glyph glyph-name="uni0336" unicode="&#x336;" d="M-705 321 L-716 250 L-20 250 L-9 321 L-705 321 Z " />
<glyph glyph-name="uni0337" unicode="&#x337;" d="M-296 216 L11 359 L-17 423 L-324 280 L-296 216 Z " />
<glyph glyph-name="uni0338" unicode="&#x338;" d="M-576 12 L-533 -35 L-445 49 L-438 61 L-74 417 L-62 423 L26 506 L-17 552 L-105 469 L-112 457 L-477 102 L-489 95 L-576 12 Z " />
<glyph glyph-name="Wgrave" unicode="&#x1e80;" horiz-adv-x="931" d="M676 825 L488 960 L430 875 L633 764 L676 825 Z M884 700 L640 112 L584 700 L490 700 L249 117 L192 700 L91 700 L182 0 L277 0 L515 547 L571 0 L666 0 L979 700 L884 700 Z " />
<glyph glyph-name="wgrave" unicode="&#x1e81;" horiz-adv-x="807" d="M610 649 L407 820 L350 746 L564 591 L610 649 Z M719 525 C684 376 622 218 538 94 L493 525 L403 525 L224 115 L164 525 L66 525 L163 0 L253 0 L426 385 L470 0 L560 0 C678 149 761 339 810 525 L719 525 Z " />
<glyph glyph-name="Wacute" unicode="&#x1e82;" horiz-adv-x="931" d="M694 875 L653 959 L422 824 L456 764 L694 875 Z M884 700 L640 112 L584 700 L490 700 L249 117 L192 700 L91 700 L182 0 L277 0 L515 547 L571 0 L666 0 L979 700 L884 700 Z " />
<glyph glyph-name="wacute" unicode="&#x1e83;" horiz-adv-x="807" d="M621 745 L567 820 L354 649 L397 590 L621 745 Z M719 525 C684 376 622 218 538 94 L493 525 L403 525 L224 115 L164 525 L66 525 L163 0 L253 0 L426 385 L470 0 L560 0 C678 149 761 339 810 525 L719 525 Z " />
<glyph glyph-name="Wdieresis" unicode="&#x1e84;" horiz-adv-x="931" d="M439 789 C478 789 507 813 507 860 C507 893 484 918 448 918 C411 918 379 892 379 846 C379 812 404 789 439 789 L439 789 Z M670 789 C709 789 738 813 738 860 C738 893 715 918 679 918 C642 918 610 892 610 846 C610 812 635 789 670 789 L670 789 Z M884 700 L640 112 L584 700 L490 700 L249 117 L192 700 L91 700 L182 0 L277 0 L515 547 L571 0 L666 0 L979 700 L884 700 Z " />
<glyph glyph-name="wdieresis" unicode="&#x1e85;" horiz-adv-x="807" d="M367 637 C408 637 438 664 438 712 C438 746 415 770 378 770 C340 770 307 742 307 695 C307 660 332 637 367 637 L367 637 Z M589 637 C630 637 660 664 660 712 C660 746 637 770 600 770 C562 770 529 742 529 695 C529 660 554 637 589 637 L589 637 Z M719 525 C684 376 622 218 538 94 L493 525 L403 525 L224 115 L164 525 L66 525 L163 0 L253 0 L426 385 L470 0 L560 0 C678 149 761 339 810 525 L719 525 Z " />
<glyph glyph-name="uni1E9E" unicode="&#x1e9e;" horiz-adv-x="724" d="M472 383 L679 600 L693 690 C620 710 538 720 448 720 C255 720 144 637 118 473 L43 0 L137 0 L212 473 C229 583 302 637 433 637 C486 637 539 632 588 623 L371 387 L358 305 C522 305 584 277 584 201 C584 112 529 64 418 64 C370 64 331 73 292 90 L278 -2 C317 -14 360 -20 406 -20 C587 -20 680 63 680 216 C680 324 609 370 472 383 L472 383 Z " />
<glyph glyph-name="Ygrave" unicode="&#x1ef2;" horiz-adv-x="638" d="M529 825 L341 960 L283 875 L486 764 L529 825 Z M689 700 L584 700 L426 471 C384 410 351 365 331 336 C318 370 298 421 278 470 L187 700 L87 700 L272 254 L232 0 L325 0 L364 249 L689 700 Z " />
<glyph glyph-name="ygrave" unicode="&#x1ef3;" horiz-adv-x="557" d="M475 649 L272 820 L215 746 L429 591 L475 649 Z M474 525 C424 365 345 220 259 94 L163 525 L67 525 L193 4 C143 -61 93 -120 47 -170 L150 -170 C300 -10 476 245 568 525 L474 525 Z " />
<glyph glyph-name="uni1EF8" unicode="&#x1ef8;" horiz-adv-x="638" d="M353 846 C393 846 417 804 477 804 C528 804 567 843 593 906 L526 929 C514 904 499 886 475 886 C432 886 409 928 350 928 C300 928 258 890 234 830 L300 803 C312 827 326 846 353 846 L353 846 Z M689 700 L584 700 L426 471 C384 410 351 365 331 336 C318 370 298 421 278 470 L187 700 L87 700 L272 254 L232 0 L325 0 L364 249 L689 700 Z " />
<glyph glyph-name="uni1EF9" unicode="&#x1ef9;" horiz-adv-x="557" d="M283 690 C322 690 341 642 411 642 C467 642 500 689 521 743 L458 770 C442 731 424 722 400 722 C361 722 339 769 273 769 C217 769 183 724 162 671 L226 641 C243 679 261 690 283 690 L283 690 Z M474 525 C424 365 345 220 259 94 L163 525 L67 525 L193 4 C143 -61 93 -120 47 -170 L150 -170 C300 -10 476 245 568 525 L474 525 Z " />
<glyph glyph-name="endash" unicode="&#x2013;" horiz-adv-x="567" d="M76 321 L63 240 L498 240 L511 321 L76 321 Z " />
<glyph glyph-name="emdash" unicode="&#x2014;" horiz-adv-x="803" d="M76 321 L63 240 L734 240 L747 321 L76 321 Z " />
<glyph glyph-name="quoteleft" unicode="&#x2018;" horiz-adv-x="231" d="M270 780 L195 780 C129 717 96 646 96 584 C96 532 124 510 160 510 C205 510 235 541 235 585 C235 618 214 643 184 643 L179 643 C184 675 212 726 270 780 L270 780 Z " />
<glyph glyph-name="quoteright" unicode="&#x2019;" horiz-adv-x="234" d="M90 516 L165 516 C231 579 264 650 264 712 C264 764 236 786 200 786 C155 786 125 755 125 711 C125 678 146 653 176 653 L181 653 C176 621 148 570 90 516 L90 516 Z " />
<glyph glyph-name="quotesinglbase" unicode="&#x201a;" horiz-adv-x="241" d="M-17 -152 L58 -152 C124 -89 157 -18 157 44 C157 96 129 118 93 118 C48 118 18 87 18 43 C18 10 39 -15 69 -15 L74 -15 C69 -47 41 -98 -17 -152 L-17 -152 Z " />
<glyph glyph-name="quotedblleft" unicode="&#x201c;" horiz-adv-x="397" d="M271 780 L196 780 C130 717 97 646 97 584 C97 532 125 510 161 510 C206 510 236 541 236 585 C236 618 215 643 185 643 L180 643 C185 675 213 726 271 780 L271 780 Z M437 780 L362 780 C296 717 263 646 263 584 C263 532 291 510 327 510 C372 510 402 541 402 585 C402 618 381 643 351 643 L346 643 C351 675 379 726 437 780 L437 780 Z " />
<glyph glyph-name="quotedblright" unicode="&#x201d;" horiz-adv-x="398" d="M90 516 L165 516 C231 579 264 650 264 712 C264 764 236 786 200 786 C155 786 125 755 125 711 C125 678 146 653 176 653 L181 653 C176 621 148 570 90 516 L90 516 Z M256 516 L331 516 C397 579 430 650 430 712 C430 764 402 786 366 786 C321 786 291 755 291 711 C291 678 312 653 342 653 L347 653 C342 621 314 570 256 516 L256 516 Z " />
<glyph glyph-name="quotedblbase" unicode="&#x201e;" horiz-adv-x="405" d="M-20 -152 L55 -152 C121 -89 154 -18 154 44 C154 96 126 118 90 118 C45 118 15 87 15 43 C15 10 36 -15 66 -15 L71 -15 C66 -47 38 -98 -20 -152 L-20 -152 Z M146 -152 L221 -152 C287 -89 320 -18 320 44 C320 96 292 118 256 118 C211 118 181 87 181 43 C181 10 202 -15 232 -15 L237 -15 C232 -47 204 -98 146 -152 L146 -152 Z " />
<glyph glyph-name="dagger" unicode="&#x2020;" horiz-adv-x="447" d="M459 516 L309 516 L338 700 L242 700 L213 516 L70 516 L55 423 L198 423 L131 0 L227 0 L294 423 L444 423 L459 516 Z " />
<glyph glyph-name="daggerdbl" unicode="&#x2021;" horiz-adv-x="493" d="M471 447 L486 540 L336 540 L361 700 L265 700 L240 540 L97 540 L82 447 L225 447 L194 253 L51 253 L36 160 L179 160 L154 0 L250 0 L275 160 L425 160 L440 253 L290 253 L321 447 L471 447 Z " />
<glyph glyph-name="bullet" unicode="&#x2022;" horiz-adv-x="365" d="M178 187 C241 187 285 221 285 287 C285 340 245 367 193 367 C130 367 86 333 86 268 C86 214 126 187 178 187 L178 187 Z " />
<glyph glyph-name="ellipsis" unicode="&#x2026;" horiz-adv-x="625" d="M75 -12 C118 -12 148 11 148 56 C148 92 121 111 85 111 C42 111 12 88 12 43 C12 7 39 -12 75 -12 L75 -12 Z M275 -12 C318 -12 348 11 348 56 C348 92 321 111 285 111 C242 111 212 88 212 43 C212 7 239 -12 275 -12 L275 -12 Z M475 -12 C518 -12 548 11 548 56 C548 92 521 111 485 111 C442 111 412 88 412 43 C412 7 439 -12 475 -12 L475 -12 Z " />
<glyph glyph-name="perthousand" unicode="&#x2030;" horiz-adv-x="1271" d="M119 -14 L213 -14 L796 708 L703 708 L119 -14 Z M220 328 C345 328 430 416 430 544 C430 636 375 696 278 696 C152 696 67 608 67 480 C67 388 122 328 220 328 L220 328 Z M231 397 C179 397 147 435 147 491 C147 570 198 626 267 626 C320 626 350 590 350 534 C350 454 301 397 231 397 L231 397 Z M633 -11 C760 -11 845 77 845 205 C845 297 789 357 692 357 C565 357 480 269 480 142 C480 48 536 -11 633 -11 L633 -11 Z M1021 -11 C1148 -11 1233 77 1233 205 C1233 297 1177 357 1080 357 C954 357 869 269 869 142 C869 48 925 -11 1021 -11 L1021 -11 Z M644 59 C592 59 560 96 560 153 C560 231 612 288 681 288 C733 288 765 250 765 194 C765 115 713 59 644 59 L644 59 Z M1032 59 C980 59 949 96 949 152 C949 231 1000 288 1069 288 C1122 288 1153 250 1153 195 C1153 115 1103 59 1032 59 L1032 59 Z " />
<glyph glyph-name="guilsinglleft" unicode="&#x2039;" horiz-adv-x="323" d="M268 490 L43 292 L35 238 L196 41 L255 95 L120 262 L315 434 L268 490 Z " />
<glyph glyph-name="guilsinglright" unicode="&#x203a;" horiz-adv-x="324" d="M57 41 L282 239 L290 293 L129 490 L69 436 L205 269 L10 97 L57 41 Z " />
<glyph glyph-name="fraction" unicode="&#x2044;" horiz-adv-x="526" d="M-63 -14 L30 -14 L614 708 L521 708 L-63 -14 Z " />
<glyph glyph-name="Euro" unicode="&#x20ac;" horiz-adv-x="583" d="M497 635 C537 635 562 633 592 625 L605 709 C575 717 549 720 505 720 C319 720 185 617 128 459 L73 459 L52 392 L110 392 C104 365 101 337 100 308 L29 308 L7 241 L101 241 C114 82 216 -20 392 -20 C424 -20 458 -17 492 -9 L505 74 C475 68 462 65 407 65 C289 65 216 128 200 241 L433 241 L454 308 L197 308 C198 338 202 366 207 392 L478 392 L499 459 L228 459 C274 570 370 635 497 635 L497 635 Z " />
<glyph glyph-name="trademark" unicode="&#x2122;" horiz-adv-x="799" d="M394 633 L405 700 L99 700 L88 633 L202 633 L157 350 L234 350 L279 633 L394 633 Z M726 700 L596 523 L519 700 L449 700 L393 350 L466 350 L501 571 L556 444 L608 444 L702 571 L667 350 L739 350 L795 700 L726 700 Z " />
<glyph glyph-name="minus" unicode="&#x2212;" horiz-adv-x="467" d="M78 325 L66 245 L397 245 L409 325 L78 325 Z " />
<glyph glyph-name="approxequal" unicode="&#x2248;" horiz-adv-x="532" d="M433 434 C413 401 390 383 360 383 C312 383 270 433 207 433 C151 433 100 393 78 347 L133 295 C152 327 177 345 207 345 C262 345 299 296 359 296 C414 296 467 334 488 380 L433 434 Z M404 253 C384 221 361 203 331 203 C283 203 241 252 178 252 C122 252 72 212 49 166 L104 115 C123 147 148 165 178 165 C233 165 270 115 330 115 C385 115 438 153 460 199 L404 253 Z " />
<glyph glyph-name="notequal" unicode="&#x2260;" horiz-adv-x="469" d="M411 328 L424 409 L357 409 L422 518 L358 544 L277 409 L93 409 L80 328 L229 328 L175 239 L66 239 L53 158 L127 158 L61 48 L125 23 L206 158 L384 158 L397 239 L255 239 L308 328 L411 328 Z " />
<glyph glyph-name="uniF8FF" unicode="&#xf8ff;" horiz-adv-x="1176" d="M299 573 C299 559 290 551 277 551 L169 551 L169 697 C169 711 178 722 194 722 C209 722 219 711 219 697 L219 595 L277 595 C290 595 299 586 299 573 L299 573 Z M315 636 C315 685 355 722 408 722 C461 722 500 687 500 636 C500 585 461 548 408 548 C355 548 315 586 315 636 L315 636 Z M616 600 C616 624 534 606 534 668 C534 700 558 722 604 722 C634 722 664 712 664 688 C664 677 656 669 644 669 C629 669 618 680 599 680 C587 680 583 676 583 670 C583 650 665 667 665 602 C665 569 637 548 594 548 C554 548 528 561 528 583 C528 595 536 603 550 603 C566 603 572 591 596 591 C610 591 616 594 616 600 L616 600 Z M448 636 C448 660 432 677 408 677 C383 677 366 660 366 636 C366 613 383 594 408 594 C432 594 448 611 448 636 L448 636 Z M504 285 L423 370 L423 307 C423 293 412 281 397 281 C382 281 372 293 372 307 L372 453 L404 453 L485 368 L485 431 C485 445 495 456 510 456 C525 456 536 445 536 431 L536 285 L504 285 Z M1037 334 C1037 357 955 339 955 402 C955 435 979 456 1026 456 C1057 456 1086 445 1086 421 C1086 410 1078 402 1066 402 C1051 402 1039 413 1021 413 C1009 413 1005 409 1005 404 C1005 383 1087 400 1087 335 C1087 302 1059 281 1015 281 C977 281 950 294 950 316 C950 328 957 337 972 337 C987 337 993 324 1017 324 C1031 324 1037 327 1037 334 L1037 334 Z M311 281 C299 281 290 286 286 296 L281 309 L211 309 L206 296 C202 286 193 281 181 281 C163 281 151 298 160 317 L226 453 L266 453 L331 317 C339 298 329 281 311 281 L311 281 Z M750 369 C750 318 714 285 659 285 L584 285 L584 453 L659 453 C714 453 750 420 750 369 L750 369 Z M911 369 C911 357 903 349 889 349 L841 349 L841 326 L899 326 C912 326 920 318 920 305 C920 293 912 285 899 285 L790 285 L790 453 L899 453 C912 453 920 444 920 432 C920 420 912 410 899 410 L841 410 L841 390 L889 390 C903 390 911 380 911 369 L911 369 Z M699 368 C699 392 684 408 658 408 L635 408 L635 328 L658 328 C684 328 699 345 699 368 L699 368 Z M267 343 L246 394 L225 343 L267 343 Z M208 22 L208 126 L172 126 C158 126 150 137 150 148 C150 160 158 170 172 170 L294 170 C308 170 318 161 318 148 C318 136 308 126 294 126 L259 126 L259 22 C259 7 247 -3 233 -3 C219 -3 208 7 208 22 L208 22 Z M505 169 L442 69 L442 22 C442 7 431 -3 417 -3 C403 -3 391 7 391 22 L391 69 L329 169 L387 169 L418 110 L448 169 L505 169 Z M605 42 L582 42 L582 22 C582 7 572 -3 558 -3 C543 -3 531 7 531 22 L531 169 L605 169 C649 169 674 141 674 106 C674 70 649 42 605 42 L605 42 Z M830 85 C830 73 822 65 808 65 L760 65 L760 43 L818 43 C832 43 840 34 840 21 C840 9 832 0 818 0 L709 0 L709 169 L818 169 C832 169 840 160 840 148 C840 136 832 126 818 126 L760 126 L760 106 L808 106 C822 106 830 96 830 85 L830 85 Z M601 84 C618 84 626 92 626 106 C626 118 618 128 601 128 L582 128 L582 84 L601 84 Z " />
<glyph glyph-name="fi" unicode="&#xfb01;" horiz-adv-x="576" d="M483 64 C456 64 445 77 450 108 L516 525 L242 525 L249 572 C261 648 302 682 369 682 C398 682 421 679 451 665 L464 748 C437 760 406 765 371 765 C254 765 177 699 155 560 L149 525 L63 525 L50 445 L137 445 L62 -30 C55 -75 38 -101 -13 -101 C-38 -101 -58 -96 -81 -84 L-94 -167 C-71 -179 -46 -184 -10 -184 C102 -184 139 -125 156 -18 L229 445 L411 445 L358 106 C349 47 360 -11 445 -11 C466 -11 491 -7 511 0 L523 73 C510 67 495 64 483 64 L483 64 Z " />
<glyph glyph-name="fl" unicode="&#xfb02;" horiz-adv-x="607" d="M514 64 C464 64 464 92 473 146 L569 750 L477 750 L441 525 L242 525 L249 572 C261 648 302 682 369 682 C391 682 408 679 430 672 L443 753 C422 761 398 765 371 765 C254 765 177 699 155 560 L149 525 L63 525 L50 445 L137 445 L62 -30 C55 -75 38 -101 -13 -101 C-38 -101 -58 -96 -81 -84 L-94 -167 C-71 -179 -46 -184 -10 -184 C102 -184 139 -125 156 -18 L229 445 L428 445 L378 128 C361 24 403 -11 477 -11 C511 -11 540 -5 562 7 L574 80 C555 69 534 64 514 64 L514 64 Z " />
</font>
</svg>
